<svg width="280" height="150" viewBox="0 0 280 150" fill="none" xmlns="http://www.w3.org/2000/svg">
<rect width="280" height="150" rx="18.1417" fill="black"/>
<g clip-path="url(#clip0_604_1361)">
<path d="M146.963 72.7345C146.963 80.9055 141.504 86.9992 133.552 86.9992C125.802 86.9992 119.669 81.2518 119.669 72.7345C119.669 64.2172 126.071 58.5391 133.532 58.5391C140.83 58.5391 146.963 64.2865 146.963 72.7345ZM155.657 73.15C155.657 59.37 146.963 49.6063 133.552 49.6063C127.579 49.6154 121.852 52.0528 117.622 56.3863C113.392 60.7197 111.002 66.597 110.976 72.7345C110.976 86.099 120.68 95.9319 133.552 95.9319C138.539 95.9319 143.93 93.7853 146.963 90.6692V95.4472H155.657V73.15ZM199.306 72.7345C199.306 80.4208 193.982 86.9992 185.424 86.9992C183.602 87.0066 181.796 86.6422 180.113 85.9271C178.429 85.212 176.9 84.1604 175.615 82.8334C174.33 81.5064 173.314 79.9304 172.626 78.1968C171.938 76.4632 171.592 74.6065 171.608 72.7345C171.608 68.9605 173.067 65.341 175.665 62.6723C178.262 60.0037 181.784 58.5044 185.457 58.5044C189.13 58.5044 192.653 60.0037 195.25 62.6723C197.847 65.341 199.306 68.9605 199.306 72.7345V72.7345ZM208 72.7345C208 60.6164 197.891 49.6063 185.424 49.6063C172.619 49.6063 162.915 59.5085 162.915 73.15V111.443H171.608V90.8077C173.697 92.8159 179.695 95.9319 185.424 95.9319C198.902 95.9319 208 85.268 208 72.7345V72.7345ZM89.1878 112.205C100.914 112.205 106.71 103.826 106.71 94.6163C106.738 91.6246 105.936 88.6867 104.396 86.1476C102.856 83.6086 100.643 81.5738 98.0161 80.2823C102.666 77.8587 105.699 72.1805 105.699 65.9484C105.699 57.0849 98.8922 49.6063 88.7834 49.6063C78.6746 49.6063 71.7332 56.4617 71.4637 66.1561H80.0899C80.1893 63.9378 81.1233 61.8459 82.6949 60.3215C84.2665 58.7971 86.3528 57.9594 88.5139 57.9851C93.4335 57.9851 96.8031 61.3089 96.8031 66.2254C96.8031 72.042 92.6922 76.1276 86.2899 76.1276H84.3356V84.5063H86.2899C93.4335 84.5063 98.1509 88.1071 98.1509 94.2008C98.1509 100.156 94.3096 103.341 89.1204 103.341C83.9312 103.341 79.7529 100.156 79.4833 94.824H70.8571C71.1267 104.311 77.5964 112.205 89.1878 112.205Z" fill="white"/>
</g>
<defs>
<clipPath id="clip0_604_1361">
<rect width="137.143" height="62.5984" fill="white" transform="translate(70.8571 49.6063)"/>
</clipPath>
</defs>
</svg>
