<svg width="280" height="150" viewBox="0 0 280 150" fill="none" xmlns="http://www.w3.org/2000/svg">
<rect width="280" height="150" rx="18.1417" fill="black"/>
<g clip-path="url(#clip0_604_1396)">
<path d="M152.176 73.6879L189.362 23.7844H183.869L146.56 73.6879H152.176Z" fill="white"/>
<path d="M89.1428 21.2598V127.36H191.807V21.2598H89.1428ZM189.362 124.832H91.587V114.729H95.898C95.952 114.339 98.3665 110.756 98.697 110.414C99.0235 110.066 107.311 98.8131 107.311 98.8131H121.844L123.545 104.899C123.545 104.899 119.302 110.628 118.163 112.011C117.488 112.829 115.557 114.729 115.557 114.729H122.393C122.393 114.729 122.628 114.144 123.176 113.093C123.726 112.043 125.661 109.614 125.661 109.614C125.661 109.614 126.507 112.334 126.574 112.793C126.66 113.363 126.891 114.729 126.891 114.729H133.803C133.803 114.729 134.048 114.185 134.598 113.136C135.143 112.086 137.146 109.816 137.146 109.816C137.146 109.816 137.914 112.334 137.982 112.793C138.069 113.363 138.298 114.729 138.298 114.729H147.134C147.134 114.729 145.813 112.362 145.514 111.572C145.343 111.133 142.577 102.187 142.577 102.187L144.88 98.8117H159.524C159.524 98.8117 162.859 109.9 163.257 111.366C163.516 112.469 163.662 113.595 163.689 114.729H172.908C171.512 113.707 168.001 100.883 166.296 95.9563L161.829 79.9582C161.612 79.3497 161.448 77.148 161.448 77.148H154.313C153.931 78.199 153.279 79.165 152.836 80.0141C152.287 81.0664 143.224 93.348 141.232 95.9563C140.939 96.3443 140.769 96.5608 140.769 96.5502C140.769 96.5263 140.706 96.2964 140.618 95.9563C140.289 94.7737 139.615 92.4006 139.615 92.4006C139.615 92.4006 147.337 82.2583 148.126 81.2259C150.471 78.1591 151.81 77.148 151.81 77.148H144.498C144.438 77.9678 144.184 78.7598 143.759 79.4547C143.408 80.0114 137.423 87.7659 137.423 87.7659C137.423 87.7659 135.54 80.7502 135.184 79.6141C134.963 78.8128 134.867 77.9805 134.898 77.148H126.121C126.452 77.536 127.465 80.1257 127.465 80.1257L131.791 93.8914L129.261 97.2359C129.153 97.0684 124.575 81.5461 124.379 80.899C124.161 80.1669 123.929 77.148 123.929 77.148H116.415C116.415 77.148 114.956 80.4299 113.944 81.9487C113.526 82.5772 108.763 89.1731 103.687 95.9563C98.0387 103.735 91.8891 111.623 91.7554 111.724C91.6966 111.778 91.6408 111.835 91.5883 111.895V23.7844H189.362V124.831V124.832ZM118.251 87.0364C118.581 88.3944 120.472 94.4176 120.472 94.4176H110.707C110.707 94.4176 116.873 86.6604 117.92 84.3325C118.035 84.0734 118.059 84.274 118.059 84.3976C118.018 85.282 118.082 86.1683 118.251 87.0364V87.0364ZM130.949 102.503L133.549 99.019C133.549 99.019 135.062 103.763 135.31 104.038L132.623 107.854L130.949 102.503ZM155.769 87.0364C156.099 88.3944 157.992 94.4176 157.992 94.4176H148.227C148.227 94.4176 154.393 86.6604 155.439 84.3325C155.555 84.0734 155.576 84.274 155.576 84.3976C155.535 85.282 155.6 86.1683 155.769 87.0364V87.0364Z" fill="white"/>
</g>
<defs>
<clipPath id="clip0_604_1396">
<rect width="102.857" height="106.299" fill="white" transform="translate(89.1428 21.2598)"/>
</clipPath>
</defs>
</svg>
