<svg width="278" height="144" viewBox="0 0 278 144" fill="none" xmlns="http://www.w3.org/2000/svg">
<rect width="277.795" height="144" rx="18.1417" fill="black"/>
<g clip-path="url(#clip0_576_1447)">
<path d="M145.805 69.8241C145.805 77.6683 140.39 83.5182 132.5 83.5182C124.811 83.5182 118.727 78.0007 118.727 69.8241C118.727 61.6476 125.078 56.1965 132.48 56.1965C139.721 56.1965 145.805 61.714 145.805 69.8241ZM154.431 70.223C154.431 56.9942 145.805 47.6211 132.5 47.6211C126.574 47.6298 120.892 49.9698 116.695 54.1298C112.498 58.2899 110.128 63.9321 110.101 69.8241C110.101 82.6541 119.729 92.0937 132.5 92.0937C137.448 92.0937 142.797 90.0329 145.805 87.0415V91.6283H154.431V70.223ZM197.737 69.8241C197.737 77.203 192.455 83.5182 183.963 83.5182C182.156 83.5254 180.365 83.1755 178.694 82.489C177.023 81.8025 175.507 80.793 174.232 79.5191C172.956 78.2452 171.949 76.7322 171.266 75.068C170.584 73.4037 170.241 71.6213 170.257 69.8241C170.257 66.2011 171.704 62.7264 174.281 60.1645C176.858 57.6026 180.353 56.1633 183.997 56.1633C187.641 56.1633 191.136 57.6026 193.712 60.1645C196.289 62.7264 197.737 66.2011 197.737 69.8241ZM206.362 69.8241C206.362 58.1908 196.333 47.6211 183.963 47.6211C171.26 47.6211 161.632 57.1272 161.632 70.223V106.984H170.257V87.1744C172.329 89.1022 178.28 92.0937 183.963 92.0937C197.336 92.0937 206.362 81.8563 206.362 69.8241ZM88.4851 107.716C100.119 107.716 105.869 99.672 105.869 90.8306C105.898 87.9587 105.101 85.1383 103.573 82.7008C102.045 80.2632 99.8497 78.3098 97.244 77.0701C101.857 74.7434 104.866 69.2923 104.866 63.3095C104.866 54.8005 98.1132 47.6211 88.084 47.6211C78.0548 47.6211 71.168 54.2022 70.9006 63.5089H79.4588C79.5575 61.3793 80.4841 59.371 82.0434 57.9076C83.6026 56.4442 85.6725 55.6401 87.8165 55.6647C92.6974 55.6647 96.0405 58.8556 96.0405 63.5754C96.0405 69.1594 91.9619 73.0815 85.6101 73.0815H83.6711V81.1251H85.6101C92.6974 81.1251 97.3777 84.5819 97.3777 90.4318C97.3777 96.1487 93.5666 99.2066 88.4183 99.2066C83.2699 99.2066 79.1245 96.1487 78.8571 91.0301H70.2988C70.5663 100.137 76.985 107.716 88.4851 107.716Z" fill="white"/>
</g>
<defs>
<clipPath id="clip0_576_1447">
<rect width="136.063" height="60.0945" fill="white" transform="translate(70.2988 47.6211)"/>
</clipPath>
</defs>
</svg>
