<svg width="280" height="150" viewBox="0 0 280 150" fill="none" xmlns="http://www.w3.org/2000/svg">
<rect width="280" height="150" rx="18.1417" fill="black"/>
<g clip-path="url(#clip0_604_1365)">
<path d="M162.434 49.7673C162.545 49.7535 162.656 49.7423 162.767 49.7337C166.629 49.4423 170.525 50.4677 173.496 53.0733C176.064 55.3218 177.635 58.5307 177.856 61.9756C178.403 69.5912 173.162 75.9925 165.662 76.5494C165.578 76.5624 165.492 76.5734 165.408 76.5825C157.873 77.3651 150.892 72.4165 150.192 64.4966C149.491 56.5489 154.752 50.519 162.434 49.7673ZM164.326 70.1938C172.395 69.488 171.762 55.7318 163.679 56.154C157.495 56.9645 156.026 65.2363 160.639 68.9619C161.62 69.7534 163.065 70.2638 164.326 70.1938Z" fill="white"/>
<path d="M76.968 50.1821C79.6324 50.2458 82.4605 50.1975 85.1373 50.1945C85.8156 51.4547 86.6861 53.4501 87.3332 54.8159L91.9188 64.4719C92.5465 62.9278 93.7117 60.6397 94.4533 59.0645C95.8328 56.1344 97.2277 53.089 98.6605 50.1954L106.816 50.1921L106.818 76.1536C104.585 76.1389 102.352 76.1432 100.119 76.1666L100.117 69.5917C100.115 66.7014 100.074 63.6985 100.134 60.8175L94.3426 73.6047L89.441 73.6266C87.5019 69.386 85.5842 65.1353 83.6881 60.8745C83.5919 65.8507 83.6871 71.156 83.6905 76.1531C81.4538 76.1387 79.2172 76.1432 76.9807 76.1668C76.9227 73.3502 76.9772 70.3227 76.9771 67.4923L76.968 50.1821Z" fill="white"/>
<path d="M118.224 50.1821C121.446 50.2649 124.777 50.2281 128.011 50.1939C131.941 50.1522 138.379 50.0336 140.156 54.6465C140.702 56.0659 140.668 57.6486 140.063 59.0427C139.316 60.7952 138.087 61.6224 136.434 62.2893C136.714 62.3876 136.994 62.4903 137.271 62.5973C138.831 63.1976 140.089 64.4091 140.767 65.9617C141.531 67.7137 141.489 69.7094 140.818 71.4833C140.504 72.1687 140.078 72.7947 139.557 73.3348C136.47 76.5548 131.264 76.1536 127.21 76.1504C124.22 76.1366 121.23 76.1424 118.24 76.1677C118.172 73.4183 118.236 70.3731 118.236 67.6043L118.224 50.1821ZM132.799 69.5454C133.269 68.9714 133.515 68.5031 133.451 67.7241C133.221 64.9047 127.9 65.6354 125.831 65.6493L125.862 70.3382C127.79 70.3487 131.346 70.7077 132.799 69.5454ZM125.861 60.3528C127.723 60.3628 130.68 60.6859 132.142 59.7164C132.595 59.0774 132.836 58.5647 132.718 57.7462C132.358 55.2337 127.795 56.05 125.815 56.0192C125.857 57.4736 125.826 58.9155 125.861 60.3528Z" fill="white"/>
<path d="M227.478 49.6063H231.22C234.538 50.2344 237.034 50.694 240.001 52.6062V52.7322C239.2 54.091 237.892 57.1154 237.205 58.6285C236.365 58.1012 226.67 52.9732 226.68 57.4238C226.684 59.1375 232.141 60.1068 233.418 60.6681C234.162 60.9955 236.124 61.6052 236.917 62.3033C242.84 66.8812 239.625 75.3613 232.514 76.2902C226.499 77.0761 222.016 75.8606 217.154 72.3916C218.007 70.4175 219.081 68.4399 219.976 66.4478C220.347 66.735 220.724 67.0151 221.105 67.2879C223.314 68.8605 227.456 70.8907 230.286 70.4275C230.7 70.374 231.551 70.026 231.763 69.6448C233.475 66.5636 227.06 65.9496 225.311 65.2162C223.908 64.6278 223.137 64.5168 221.78 63.6431C218.325 61.4168 217.978 56.8178 220.053 53.4991C221.708 50.9213 224.587 50.1671 227.478 49.6063Z" fill="white"/>
<path d="M196.533 49.6063H200.207C200.671 49.7418 202.125 49.9424 202.758 50.0763C204.979 50.5484 207.105 51.4089 209.039 52.6197L206.198 58.6249C204.029 57.1907 200.252 55.6722 197.59 55.6487C196.751 55.6412 195.297 56.5917 195.602 57.3776C196.449 59.5665 200.782 59.8707 202.685 60.755C203.995 61.3643 204.983 61.5055 206.117 62.4263C209.398 64.6657 209.798 69.6336 207.59 72.7992C206.106 74.927 203.303 76.0846 200.76 76.4164C195.553 77.0959 190.393 75.5164 186.175 72.3716C186.64 71.1415 188.395 67.7375 189.036 66.4631C189.441 66.7805 189.852 67.0884 190.271 67.3866C192.626 69.0662 196.31 70.7523 199.279 70.4235C200.193 70.3223 201.304 69.6017 201.069 68.5133C200.725 66.9182 198.557 66.4274 197.228 66.0528C193.521 65.0077 188.766 63.9989 187.954 59.4393C187.598 57.4155 187.927 55.1681 189.091 53.4604C190.857 50.8698 193.666 50.1437 196.533 49.6063Z" fill="white"/>
<path d="M49.6506 50.1902L57.4839 50.1977L67.9988 76.155L59.872 76.1559C58.2613 71.8907 56.8017 67.5152 55.2255 63.234C54.6104 61.5632 54.0065 59.6742 53.352 58.0382L48.8591 70.168C48.1641 72.0473 47.3872 74.3275 46.6384 76.1542L38.8571 76.1431V75.9378C40.089 73.2204 41.2732 70.229 42.4345 67.4503L49.6506 50.1902Z" fill="white"/>
<path d="M95.9324 100.393C87.8538 97.8996 91.9748 87.8815 98.6124 90.0226C99.9528 90.4493 101.07 91.4056 101.714 92.6781C102.348 93.9432 102.458 95.4147 102.018 96.7628C101.378 98.7526 99.7801 99.8976 97.8673 100.393H95.9324ZM97.2442 99.0294C99.3836 98.8251 100.956 96.8917 100.758 94.7095C100.56 92.5273 98.666 90.9214 96.5263 91.1212C94.3835 91.3213 92.8061 93.2565 93.0045 95.4418C93.2029 97.6272 95.1019 99.234 97.2442 99.0294Z" fill="white"/>
<path d="M111.481 89.8665C113.282 89.8566 117.348 89.4541 118.571 90.754C120.035 92.3091 119.16 93.8973 117.682 94.8428C118.482 95.0851 118.986 95.4099 119.398 96.1848C119.732 96.8198 119.807 97.564 119.606 98.2549C119.11 99.8989 117.529 100.149 116.11 100.395H111.538C111.353 97.2266 111.525 93.1387 111.481 89.8665ZM117.69 98.4223C118.188 97.824 118.58 96.8467 117.826 96.2864C116.572 95.3559 114.417 95.6085 112.927 95.639C112.946 96.7469 112.955 97.855 112.953 98.9631C114.435 98.9367 116.527 99.1729 117.69 98.4223ZM112.942 94.2775C114.131 94.2941 116.396 94.4915 117.319 93.8201C118.123 92.7391 117.95 91.6768 116.586 91.3604C115.475 91.1025 114.096 91.2205 112.953 91.23C112.941 92.2457 112.938 93.2617 112.942 94.2775Z" fill="white"/>
<path d="M59.5968 89.8753L61.3631 89.8697C61.3382 92.2501 61.3328 94.6307 61.3469 97.0112C61.3481 97.733 61.3974 99.806 61.3167 100.397H59.9841C59.926 98.3925 59.9693 96.3862 59.9278 94.3817C59.9121 93.6216 59.8901 92.8612 59.9607 92.1032C59.3989 93.2122 56.9064 98.6366 56.2933 99.0765C56.0681 99.2382 55.9394 99.1972 55.6903 99.1482C54.8366 98.5543 52.467 93.3082 51.8518 92.0941C51.7712 94.7713 51.8818 97.6701 51.8284 100.397H50.5424C50.4357 99.2354 50.4816 97.5847 50.483 96.3793L50.4729 89.8672L52.2528 89.8785C53.4473 92.2271 54.7931 94.7476 55.9228 97.1088C57.1338 94.7277 58.4317 92.2668 59.5968 89.8753Z" fill="white"/>
<path d="M71.4456 89.8672L73.1284 89.8684C73.5509 90.4876 74.1319 91.6972 74.4866 92.3948C75.2734 93.9611 76.0694 95.5228 76.8744 97.0795C77.9244 95.0343 79.4646 91.7071 80.5684 89.8722L82.2696 89.8689C82.2723 93.1347 82.3873 97.1938 82.2406 100.396H80.9392C80.8562 99.5618 80.896 98.1398 80.8971 97.2641C80.9026 95.5655 80.8937 93.8668 80.8706 92.1683C80.3534 93.2036 77.7913 98.7672 77.1794 99.0934C76.9891 99.1948 76.8615 99.2186 76.6554 99.1467C76.0184 98.9246 73.2202 92.9335 72.7566 92.017C72.8756 93.2305 72.816 95.1947 72.8253 96.47C72.8328 97.4898 72.8763 99.4778 72.7778 100.396H71.4727C71.3934 96.9184 71.4634 93.3531 71.4456 89.8672Z" fill="white"/>
<path d="M217.018 89.8719L218.528 89.8691C219.951 92.9524 221.868 97.2556 223.106 100.395H221.55C221.218 99.8014 220.686 98.4429 220.399 97.7667L215.104 97.7614C214.748 98.6494 214.369 99.5276 213.966 100.395H212.496C212.781 99.4536 213.658 97.5735 214.083 96.5988L217.018 89.8719ZM215.689 96.4259C216.356 96.4473 217.014 96.4711 217.682 96.4655L219.846 96.4394C219.569 95.7916 217.998 91.8898 217.665 91.6293C217.042 93.2654 216.318 94.8205 215.689 96.4259Z" fill="white"/>
<path d="M183.995 89.8611L185.448 89.8777C187.393 92.3223 189.304 95.444 191.197 97.7655L191.194 89.8659L192.683 89.8691C192.666 92.9293 192.813 97.4534 192.652 100.395H191.33C190.864 99.912 189.721 98.2571 189.283 97.6506L185.481 92.4045C185.485 94.5364 185.601 98.3938 185.45 100.395H184.017C183.91 97.0978 183.962 93.1877 183.995 89.8611Z" fill="white"/>
<path d="M167.182 89.8672L174.384 89.8702L174.382 91.205L168.622 91.1917C168.707 92.2121 168.675 93.3201 168.666 94.3504C170.354 94.3579 172.13 94.3943 173.806 94.2947L173.803 95.7665C172.224 95.7222 170.097 95.8102 168.623 95.7227C168.705 96.7848 168.681 97.9203 168.679 98.9906L174.564 98.9833L174.514 100.396H167.226C167.101 96.9503 167.251 93.3347 167.182 89.8672Z" fill="white"/>
<path d="M235.012 100.396C231.902 99.4166 229.776 96.9934 230.842 93.4964C231.257 92.1622 232.175 91.0506 233.394 90.4058C234.768 89.6933 236.364 89.568 237.829 90.0574C238.644 90.3237 239.246 90.6826 239.931 91.2094L239.077 92.3457C238.74 92.063 238.458 91.835 238.075 91.6185C235.294 90.0485 231.756 92.1577 232.124 95.4944C232.244 96.5626 232.775 97.5381 233.602 98.2054C234.409 98.8666 235.442 99.1707 236.471 99.0493C237.318 98.9501 237.905 98.655 238.625 98.2415C238.594 97.6132 238.575 97.1218 238.598 96.4918L236.621 96.4932C236.622 96.0743 236.61 95.5925 236.626 95.1798L239.82 95.1755L239.826 99.0931C238.67 99.8563 238.268 99.9905 236.932 100.396H235.012Z" fill="white"/>
<path d="M140.691 89.8672L142.195 89.8716L142.202 98.9923L146.659 98.9871L146.611 100.396H140.732C140.552 97.4035 140.695 92.9976 140.691 89.8672Z" fill="white"/>
<path d="M38.8571 89.8921C39.3743 89.8805 39.9149 89.8597 40.4302 89.8699C40.39 92.3145 40.3819 94.7596 40.4058 97.2046C40.4072 97.7837 40.4428 99.981 40.3663 100.396H38.8571V89.8921Z" fill="white"/>
<path d="M155.6 89.863L157.12 89.8677C157.107 93.066 157.252 97.3328 157.087 100.393H155.637C155.515 97.0402 155.606 93.2519 155.6 89.863Z" fill="white"/>
<path d="M129.125 89.8672L130.616 89.8708C130.592 92.9837 130.745 97.4015 130.582 100.397H129.186C129.07 99.4473 129.119 97.7429 129.12 96.7295L129.125 89.8672Z" fill="white"/>
</g>
<defs>
<clipPath id="clip0_604_1365">
<rect width="201.143" height="50.7874" fill="white" transform="translate(38.8571 49.6063)"/>
</clipPath>
</defs>
</svg>
