<svg width="278" height="144" viewBox="0 0 278 144" fill="none" xmlns="http://www.w3.org/2000/svg">
<rect width="277.795" height="144" rx="18.1417" fill="black"/>
<g clip-path="url(#clip0_576_1451)">
<path d="M161.154 47.7757C161.265 47.7624 161.375 47.7516 161.485 47.7433C165.317 47.4637 169.182 48.4481 172.129 50.9494C174.677 53.1079 176.236 56.1885 176.456 59.4956C176.998 66.8066 171.798 72.9519 164.357 73.4865C164.273 73.499 164.189 73.5095 164.105 73.5182C156.629 74.2695 149.703 69.5189 149.009 61.9157C148.314 54.286 153.534 48.4972 161.154 47.7757ZM163.032 67.385C171.037 66.7075 170.409 53.5016 162.39 53.9069C156.254 54.6849 154.797 62.6259 159.374 66.2025C160.347 66.9623 161.781 67.4523 163.032 67.385Z" fill="white"/>
<path d="M76.3616 48.1738C79.005 48.235 81.8108 48.1886 84.4665 48.1857C85.1395 49.3955 86.0031 51.3111 86.6452 52.6223L91.1946 61.892C91.8174 60.4097 92.9734 58.2131 93.7092 56.7009C95.0778 53.888 96.4618 50.9644 97.8832 48.1866L105.975 48.1834L105.977 73.1064C103.761 73.0924 101.546 73.0965 99.3307 73.1189L99.3288 66.807C99.3265 64.0323 99.286 61.1496 99.3453 58.3838L93.5993 70.6595L88.7364 70.6805C86.8125 66.6096 84.91 62.5289 83.0288 58.4385C82.9333 63.2157 83.0278 68.3087 83.0311 73.1059C80.8121 73.0922 78.5931 73.0965 76.3741 73.1191C76.3166 70.4152 76.3707 67.5088 76.3706 64.7916L76.3616 48.1738Z" fill="white"/>
<path d="M117.293 48.1738C120.49 48.2533 123.794 48.218 127.003 48.1851C130.902 48.1451 137.289 48.0313 139.052 52.4596C139.593 53.8222 139.56 55.3417 138.96 56.68C138.218 58.3624 136.999 59.1565 135.359 59.7967C135.638 59.8911 135.914 59.9896 136.19 60.0924C137.737 60.6687 138.985 61.8317 139.659 63.3223C140.417 65.0041 140.375 66.92 139.709 68.623C139.397 69.281 138.975 69.8819 138.458 70.4004C135.395 73.4916 130.23 73.1064 126.208 73.1033C123.242 73.0902 120.275 73.0956 117.309 73.12C117.241 70.4805 117.304 67.5572 117.305 64.8991L117.293 48.1738ZM131.753 66.7626C132.219 66.2115 132.463 65.762 132.4 65.0141C132.172 62.3075 126.893 63.0089 124.84 63.0223L124.871 67.5236C126.783 67.5337 130.312 67.8784 131.753 66.7626ZM124.87 57.9377C126.717 57.9473 129.65 58.2574 131.101 57.3267C131.55 56.7133 131.789 56.2211 131.673 55.4353C131.315 53.0233 126.789 53.807 124.824 53.7774C124.866 55.1736 124.835 56.5579 124.87 57.9377Z" fill="white"/>
<path d="M225.686 47.6211H229.399C232.691 48.224 235.167 48.6652 238.111 50.501V50.6219C237.316 51.9264 236.019 54.8298 235.337 56.2824C234.504 55.7762 224.884 50.8533 224.895 55.1259C224.899 56.7711 230.313 57.7015 231.58 58.2404C232.318 58.5547 234.264 59.14 235.051 59.8102C240.927 64.2049 237.738 72.3459 230.683 73.2377C224.715 73.9921 220.268 72.8252 215.443 69.495C216.29 67.5999 217.355 65.7014 218.244 63.7889C218.612 64.0646 218.985 64.3335 219.363 64.5954C221.555 66.1051 225.665 68.0541 228.472 67.6094C228.883 67.558 229.727 67.2239 229.938 66.858C231.636 63.9001 225.272 63.3107 223.537 62.6066C222.144 62.0417 221.379 61.9351 220.034 61.0964C216.606 58.9592 216.261 54.5441 218.32 51.3581C219.962 48.8835 222.819 48.1595 225.686 47.6211Z" fill="white"/>
<path d="M194.985 47.6211H198.63C199.09 47.7512 200.533 47.9438 201.161 48.0722C203.365 48.5254 205.474 49.3515 207.392 50.514L204.574 56.2789C202.422 54.9021 198.675 53.4443 196.034 53.4217C195.201 53.4146 193.759 54.327 194.061 55.0815C194.902 57.1828 199.2 57.4749 201.089 58.3238C202.389 58.9087 203.369 59.0443 204.493 59.9283C207.749 62.0781 208.145 66.8473 205.955 69.8863C204.483 71.9289 201.702 73.0402 199.179 73.3587C194.013 74.0111 188.893 72.4948 184.709 69.4758C185.17 68.2948 186.911 65.027 187.547 63.8036C187.949 64.1083 188.357 64.4039 188.772 64.6902C191.109 66.3026 194.764 67.9212 197.71 67.6056C198.617 67.5084 199.719 66.8167 199.486 65.7718C199.144 64.2405 196.993 63.7693 195.675 63.4097C191.997 62.4064 187.279 61.438 186.474 57.0607C186.121 55.1179 186.447 52.9604 187.602 51.321C189.354 48.834 192.141 48.137 194.985 47.6211Z" fill="white"/>
<path d="M49.2592 48.1816L57.0309 48.1888L67.463 73.1078L59.4002 73.1087C57.8022 69.0141 56.354 64.8136 54.7903 60.7037C54.18 59.0998 53.5809 57.2863 52.9315 55.7157L48.474 67.3604C47.7845 69.1645 47.0137 71.3535 46.2708 73.107L38.5508 73.0965V72.8993C39.7729 70.2906 40.9479 67.4189 42.1 64.7513L49.2592 48.1816Z" fill="white"/>
<path d="M95.1766 96.3761C87.1616 93.9826 91.2502 84.3653 97.8355 86.4207C99.1654 86.8304 100.274 87.7484 100.913 88.97C101.542 90.1845 101.651 91.5971 101.215 92.8913C100.579 94.8016 98.9941 95.9007 97.0963 96.3761H95.1766ZM96.4782 95.0673C98.6007 94.8711 100.161 93.0151 99.9644 90.9201C99.7678 88.8253 97.8887 87.2835 95.7659 87.4754C93.6399 87.6675 92.075 89.5252 92.2718 91.6232C92.4687 93.7211 94.3527 95.2636 96.4782 95.0673Z" fill="white"/>
<path d="M110.603 86.2708C112.39 86.2613 116.423 85.8749 117.637 87.1229C119.09 88.6157 118.222 90.1404 116.755 91.0481C117.548 91.2807 118.049 91.5925 118.457 92.3364C118.789 92.946 118.863 93.6604 118.663 94.3236C118.172 95.9019 116.603 96.1419 115.195 96.3777H110.659C110.476 93.3365 110.647 89.4121 110.603 86.2708ZM116.763 94.4844C117.257 93.91 117.646 92.9719 116.897 92.4339C115.654 91.5406 113.516 91.7831 112.038 91.8124C112.056 92.876 112.065 93.9398 112.064 95.0035C113.533 94.9782 115.609 95.205 116.763 94.4844ZM112.052 90.5054C113.232 90.5214 115.479 90.7108 116.394 90.0663C117.193 89.0285 117.021 88.0087 115.668 87.705C114.565 87.4574 113.197 87.5706 112.064 87.5798C112.052 88.5549 112.048 89.5302 112.052 90.5054Z" fill="white"/>
<path d="M59.1272 86.2793L60.8796 86.2739C60.8548 88.5591 60.8495 90.8444 60.8635 93.1297C60.8647 93.8227 60.9136 95.8127 60.8335 96.3798H59.5114C59.4538 94.4557 59.4967 92.5297 59.4556 90.6054C59.44 89.8757 59.4182 89.1458 59.4882 88.4181C58.9309 89.4827 56.458 94.6901 55.8497 95.1125C55.6263 95.2677 55.4986 95.2283 55.2514 95.1812C54.4044 94.6112 52.0535 89.5749 51.4432 88.4093C51.3632 90.9795 51.4729 93.7623 51.4199 96.3798H50.1441C50.0382 95.265 50.0837 93.6803 50.0852 92.5231L50.0751 86.2715L51.841 86.2824C53.0261 88.537 54.3613 90.9567 55.4821 93.2234C56.6836 90.9375 57.9713 88.5751 59.1272 86.2793Z" fill="white"/>
<path d="M70.8827 86.2715L72.5522 86.2726C72.9714 86.867 73.5478 88.0283 73.8997 88.698C74.6803 90.2017 75.47 91.7009 76.2687 93.1953C77.3105 91.2319 78.8385 88.0378 79.9336 86.2763L81.6214 86.2731C81.6241 89.4083 81.7382 93.305 81.5927 96.3792H80.3015C80.2192 95.5783 80.2586 94.2132 80.2597 93.3725C80.2652 91.7419 80.2564 90.1111 80.2334 88.4806C79.7203 89.4745 77.1784 94.8155 76.5713 95.1286C76.3825 95.226 76.2558 95.2488 76.0514 95.1798C75.4194 94.9666 72.6432 89.2151 72.1833 88.3353C72.3014 89.5002 72.2423 91.3859 72.2515 92.6101C72.2589 93.5892 72.3021 95.4977 72.2044 96.3792H70.9096C70.8308 93.0407 70.9003 89.6179 70.8827 86.2715Z" fill="white"/>
<path d="M215.308 86.2761L216.807 86.2734C218.219 89.2334 220.121 93.3644 221.349 96.3778H219.805C219.476 95.8084 218.948 94.5042 218.663 93.8551L213.41 93.85C213.057 94.7025 212.68 95.5455 212.281 96.3778H210.822C211.105 95.4746 211.975 93.6696 212.397 92.7339L215.308 86.2761ZM213.99 92.5679C214.652 92.5884 215.305 92.6113 215.967 92.6059L218.115 92.5809C217.84 91.959 216.281 88.2133 215.951 87.9632C215.333 89.5338 214.615 91.0267 213.99 92.5679Z" fill="white"/>
<path d="M182.546 86.2656L183.987 86.2816C185.917 88.6284 187.813 91.6252 189.691 93.8539L189.688 86.2702L191.166 86.2733C191.149 89.2111 191.294 93.5542 191.134 96.378H189.823C189.361 95.9145 188.227 94.3258 187.792 93.7436L184.02 88.7073C184.024 90.754 184.139 94.457 183.989 96.378H182.567C182.461 93.2129 182.513 89.4592 182.546 86.2656Z" fill="white"/>
<path d="M165.866 86.2715L173.011 86.2744L173.009 87.5558L167.294 87.543C167.378 88.5226 167.347 89.5863 167.338 90.5754C169.012 90.5826 170.775 90.6175 172.437 90.5219L172.434 91.9349C170.867 91.8923 168.758 91.9768 167.295 91.8927C167.376 92.9124 167.353 94.0025 167.351 95.0299L173.189 95.0229L173.14 96.3789H165.908C165.785 93.0713 165.934 89.6003 165.866 86.2715Z" fill="white"/>
<path d="M233.161 96.3792C230.075 95.4389 227.967 93.1127 229.024 89.7555C229.436 88.4747 230.346 87.4075 231.556 86.7885C232.919 86.1046 234.502 85.9843 235.956 86.4541C236.765 86.7098 237.362 87.0543 238.041 87.56L237.194 88.6509C236.86 88.3795 236.58 88.1606 236.2 87.9527C233.441 86.4455 229.931 88.4704 230.296 91.6736C230.415 92.699 230.942 93.6356 231.762 94.2762C232.563 94.911 233.588 95.2028 234.608 95.0864C235.449 94.9911 236.031 94.7078 236.745 94.3108C236.715 93.7076 236.697 93.2359 236.719 92.6312L234.757 92.6325C234.758 92.2303 234.747 91.7678 234.762 91.3716L237.931 91.3674L237.937 95.1284C236.79 95.8611 236.392 95.9898 235.066 96.3792H233.161Z" fill="white"/>
<path d="M139.583 86.2715L141.075 86.2757L141.082 95.0316L145.504 95.0266L145.456 96.3794H139.623C139.445 93.5063 139.587 89.2767 139.583 86.2715Z" fill="white"/>
<path d="M38.5508 86.2954C39.0639 86.2842 39.6002 86.2643 40.1115 86.2741C40.0716 88.6209 40.0636 90.9682 40.0873 93.3154C40.0886 93.8713 40.124 95.9808 40.0481 96.3789H38.5508V86.2954Z" fill="white"/>
<path d="M154.375 86.2676L155.882 86.2721C155.869 89.3425 156.014 93.4385 155.85 96.3762H154.412C154.29 93.1576 154.38 89.5209 154.375 86.2676Z" fill="white"/>
<path d="M128.108 86.2715L129.587 86.2749C129.564 89.2633 129.715 93.5044 129.553 96.3797H128.168C128.053 95.4684 128.102 93.8322 128.103 92.8593L128.108 86.2715Z" fill="white"/>
</g>
<defs>
<clipPath id="clip0_576_1451">
<rect width="199.559" height="48.7559" fill="white" transform="translate(38.5508 47.6211)"/>
</clipPath>
</defs>
</svg>
