<svg width="214" height="144" viewBox="0 0 214 144" fill="none" xmlns="http://www.w3.org/2000/svg">
<rect width="277.795" height="144" rx="18.1417" fill="black"/>
<g clip-path="url(#clip0_576_1482)">
<path d="M150.978 70.7413L187.871 22.834H182.421L145.406 70.7413H150.978Z" fill="white"/>
<path d="M88.4414 20.4102V122.266H190.297V20.4102H88.4414ZM187.871 119.84H90.8663V110.14H95.1434C95.1969 109.767 97.5925 106.326 97.9203 105.998C98.2443 105.664 106.467 94.8613 106.467 94.8613H120.885L122.572 100.703C122.572 100.703 118.363 106.204 117.233 107.532C116.563 108.316 114.647 110.14 114.647 110.14H121.429C121.429 110.14 121.663 109.579 122.206 108.57C122.752 107.562 124.672 105.231 124.672 105.231C124.672 105.231 125.511 107.842 125.578 108.282C125.663 108.829 125.893 110.14 125.893 110.14H132.75C132.75 110.14 132.993 109.619 133.539 108.611C134.079 107.603 136.067 105.424 136.067 105.424C136.067 105.424 136.828 107.842 136.896 108.282C136.983 108.829 137.21 110.14 137.21 110.14H145.976C145.976 110.14 144.666 107.868 144.368 107.109C144.199 106.689 141.455 98.1 141.455 98.1L143.74 94.86H158.269C158.269 94.86 161.577 105.505 161.972 106.912C162.229 107.971 162.373 109.052 162.4 110.14H171.547C170.162 109.159 166.678 96.8486 164.987 92.1187L160.556 76.7606C160.34 76.1764 160.177 74.0628 160.177 74.0628H153.099C152.72 75.0718 152.073 75.9991 151.633 76.8142C151.088 77.8245 142.097 89.6148 140.121 92.1187C139.83 92.4912 139.661 92.6991 139.661 92.6889C139.661 92.666 139.599 92.4453 139.511 92.1187C139.184 90.9835 138.516 88.7053 138.516 88.7053C138.516 88.7053 146.177 78.9687 146.96 77.9776C149.287 75.0335 150.615 74.0628 150.615 74.0628H143.361C143.301 74.8498 143.049 75.6101 142.627 76.2772C142.279 76.8117 136.341 84.256 136.341 84.256C136.341 84.256 134.474 77.5209 134.12 76.4303C133.901 75.661 133.805 74.862 133.836 74.0628H125.129C125.456 74.4352 126.462 76.9214 126.462 76.9214L130.754 90.1365L128.244 93.3471C128.137 93.1864 123.594 78.285 123.4 77.6638C123.183 76.9609 122.954 74.0628 122.954 74.0628H115.499C115.499 74.0628 114.051 77.2135 113.048 78.6715C112.633 79.2748 107.907 85.6069 102.871 92.1187C97.2672 99.5861 91.1661 107.159 91.0334 107.256C90.9751 107.307 90.9197 107.362 90.8676 107.419V22.8338H187.871V119.839V119.84ZM117.321 83.5557C117.647 84.8594 119.524 90.6416 119.524 90.6416H109.836C109.836 90.6416 115.953 83.1947 116.992 80.9599C117.106 80.7111 117.129 80.9038 117.129 81.0224C117.089 81.8715 117.153 82.7223 117.321 83.5557ZM129.919 98.4036L132.498 95.059C132.498 95.059 133.999 99.6128 134.245 99.8769L131.579 103.54L129.919 98.4036ZM154.543 83.5557C154.87 84.8594 156.748 90.6416 156.748 90.6416H147.06C147.06 90.6416 153.178 83.1947 154.216 80.9599C154.331 80.7111 154.351 80.9038 154.351 81.0224C154.311 81.8715 154.375 82.7223 154.543 83.5557Z" fill="white"/>
</g>
<defs>
<clipPath id="clip0_576_1482">
<rect width="102.047" height="102.047" fill="white" transform="translate(88.4414 20.4102)"/>
</clipPath>
</defs>
</svg>
