<svg width="218" height="26" viewBox="0 0 218 26" fill="none" xmlns="http://www.w3.org/2000/svg">
<path d="M215.073 23.816H209.985L203.697 15.032L202.609 16.328V23.816H198.705V1.416H202.609V10.264L210.017 1.416H215.121L206.241 11.976L215.073 23.816Z" fill="white"/>
<path d="M186.885 24.232C185.371 24.232 183.947 23.9334 182.613 23.336C181.28 22.728 180.107 21.8907 179.093 20.824C178.091 19.7573 177.301 18.5253 176.725 17.128C176.16 15.72 175.877 14.216 175.877 12.616C175.877 11.0053 176.16 9.50134 176.725 8.10401C177.301 6.696 178.091 5.464 179.093 4.408C180.107 3.34134 181.28 2.50934 182.613 1.912C183.947 1.304 185.371 1 186.885 1C188.699 1 190.368 1.42133 191.893 2.264C193.419 3.096 194.683 4.21067 195.685 5.60801L192.197 7.48001C191.568 6.70134 190.784 6.07734 189.845 5.60801C188.917 5.13867 187.931 4.904 186.885 4.904C185.904 4.904 184.981 5.10667 184.117 5.512C183.253 5.90667 182.496 6.46134 181.845 7.176C181.195 7.88001 180.688 8.70134 180.325 9.64001C179.963 10.568 179.781 11.56 179.781 12.616C179.781 13.6827 179.963 14.68 180.325 15.608C180.699 16.536 181.211 17.3573 181.861 18.072C182.512 18.776 183.264 19.3307 184.117 19.736C184.981 20.1307 185.904 20.328 186.885 20.328C187.952 20.328 188.944 20.0933 189.861 19.624C190.789 19.144 191.568 18.5147 192.197 17.736L195.685 19.624C194.683 21.0107 193.419 22.1254 191.893 22.968C190.368 23.8107 188.699 24.232 186.885 24.232Z" fill="white"/>
<path d="M163.38 1.416H167.876L176.02 23.816H171.876L170.436 19.848H160.836L159.396 23.816H155.252L163.38 1.416ZM162.26 15.944H168.996L165.62 6.712L162.26 15.944Z" fill="white"/>
<path d="M135.455 23.816V1.416H139.679L149.135 16.76V1.416H153.039V23.816H148.831L139.359 8.472V23.816H135.455Z" fill="white"/>
<path d="M123.457 24.232C122.219 24.232 121.03 24.04 119.889 23.656C118.758 23.2613 117.766 22.7013 116.913 21.976C116.059 21.24 115.446 20.36 115.073 19.336L118.737 17.992C118.886 18.4187 119.19 18.808 119.649 19.16C120.107 19.512 120.667 19.7947 121.329 20.008C121.99 20.2213 122.699 20.328 123.457 20.328C124.235 20.328 124.961 20.2107 125.633 19.976C126.315 19.7307 126.865 19.3947 127.281 18.968C127.697 18.5307 127.905 18.024 127.905 17.448C127.905 16.8613 127.686 16.3813 127.249 16.008C126.811 15.624 126.251 15.32 125.569 15.096C124.886 14.872 124.182 14.7013 123.457 14.584C121.867 14.3387 120.443 13.96 119.185 13.448C117.926 12.936 116.929 12.2267 116.193 11.32C115.467 10.4133 115.105 9.24001 115.105 7.80001C115.105 6.44534 115.494 5.26134 116.273 4.24801C117.051 3.23467 118.075 2.44534 119.345 1.88001C120.614 1.31467 121.985 1.03201 123.457 1.03201C124.683 1.03201 125.867 1.22401 127.009 1.60801C128.15 1.992 129.147 2.552 130.001 3.288C130.865 4.024 131.483 4.90934 131.857 5.94401L128.177 7.27201C128.027 6.84534 127.723 6.45601 127.265 6.10401C126.806 5.75201 126.246 5.47467 125.585 5.27201C124.923 5.05867 124.214 4.95201 123.457 4.95201C122.699 4.94134 121.979 5.06401 121.297 5.32001C120.625 5.56534 120.075 5.90134 119.649 6.32801C119.222 6.75467 119.009 7.24534 119.009 7.80001C119.009 8.51467 119.206 9.05334 119.601 9.41601C120.006 9.77868 120.545 10.0453 121.217 10.216C121.889 10.376 122.635 10.5253 123.457 10.664C124.95 10.8987 126.331 11.2933 127.601 11.848C128.87 12.4027 129.889 13.144 130.657 14.072C131.425 14.9893 131.809 16.1147 131.809 17.448C131.809 18.8027 131.425 19.992 130.657 21.016C129.889 22.0293 128.87 22.8187 127.601 23.384C126.331 23.9493 124.95 24.232 123.457 24.232Z" fill="white"/>
<path d="M93.9551 23.816V1.416H98.1791L107.635 16.76V1.416H111.539V23.816H107.331L97.8591 8.472V23.816H93.9551Z" fill="white"/>
<path d="M80.0104 24.232C78.4531 24.232 77.0024 23.928 75.6584 23.32C74.3251 22.712 73.1625 21.8747 72.1705 20.808C71.1785 19.7307 70.3998 18.4933 69.8345 17.096C69.2798 15.688 69.0025 14.184 69.0025 12.584C69.0025 10.8987 69.3011 9.35201 69.8985 7.94401C70.5065 6.53601 71.3331 5.31467 72.3785 4.28001C73.4238 3.24534 74.6078 2.44534 75.9304 1.88001C77.2638 1.31467 78.6504 1.03201 80.0904 1.03201C81.7011 1.03201 83.2638 1.41067 84.7784 2.16801C86.3038 2.91467 87.6478 4.07201 88.8104 5.64001L85.3224 7.51201C84.6078 6.63734 83.7864 5.98667 82.8584 5.56001C81.9411 5.12267 81.0024 4.90401 80.0424 4.90401C79.1038 4.90401 78.2024 5.09601 77.3384 5.48001C76.4851 5.86401 75.7225 6.40801 75.0505 7.11201C74.3891 7.80534 73.8665 8.62667 73.4825 9.57601C73.0985 10.5147 72.9065 11.544 72.9065 12.664C72.9065 13.72 73.0931 14.7173 73.4665 15.656C73.8398 16.584 74.3518 17.4 75.0024 18.104C75.6638 18.7973 76.4264 19.3413 77.2904 19.736C78.1544 20.1307 79.0824 20.328 80.0744 20.328C80.7358 20.328 81.3811 20.2267 82.0104 20.024C82.6504 19.8107 83.2478 19.5067 83.8024 19.112C84.3678 18.7173 84.8691 18.2373 85.3064 17.672C85.7544 17.1067 86.1278 16.4667 86.4264 15.752H82.3464V12.344H91.0184C91.0611 13.976 90.8051 15.5067 90.2504 16.936C89.6958 18.3653 88.9118 19.6293 87.8984 20.728C86.8851 21.8267 85.7064 22.6853 84.3624 23.304C83.0184 23.9227 81.5678 24.232 80.0104 24.232Z" fill="white"/>
<path d="M61.4037 23.816V1.416H65.3077V23.816H61.4037Z" fill="white"/>
<path d="M48.9252 24.232C47.6879 24.232 46.4985 24.04 45.3572 23.656C44.2265 23.2613 43.2345 22.7013 42.3812 21.976C41.5279 21.24 40.9145 20.36 40.5412 19.336L44.2052 17.992C44.3545 18.4187 44.6585 18.808 45.1172 19.16C45.5759 19.512 46.1359 19.7947 46.7972 20.008C47.4585 20.2213 48.1679 20.328 48.9252 20.328C49.7039 20.328 50.4292 20.2107 51.1012 19.976C51.7839 19.7307 52.3332 19.3947 52.7492 18.968C53.1652 18.5307 53.3732 18.024 53.3732 17.448C53.3732 16.8613 53.1546 16.3813 52.7172 16.008C52.2799 15.624 51.7199 15.32 51.0372 15.096C50.3546 14.872 49.6506 14.7013 48.9252 14.584C47.3359 14.3387 45.9119 13.96 44.6532 13.448C43.3945 12.936 42.3972 12.2267 41.6612 11.32C40.9359 10.4133 40.5732 9.24001 40.5732 7.80001C40.5732 6.44534 40.9625 5.26134 41.7412 4.24801C42.5199 3.23467 43.5439 2.44534 44.8132 1.88001C46.0825 1.31467 47.4532 1.03201 48.9252 1.03201C50.1519 1.03201 51.3359 1.22401 52.4772 1.60801C53.6186 1.992 54.6159 2.552 55.4692 3.288C56.3332 4.024 56.9519 4.90934 57.3252 5.94401L53.6452 7.27201C53.4959 6.84534 53.1919 6.45601 52.7332 6.10401C52.2746 5.75201 51.7146 5.47467 51.0532 5.27201C50.3919 5.05867 49.6826 4.95201 48.9252 4.95201C48.1679 4.94134 47.4479 5.06401 46.7652 5.32001C46.0932 5.56534 45.5439 5.90134 45.1172 6.32801C44.6905 6.75467 44.4772 7.24534 44.4772 7.80001C44.4772 8.51467 44.6745 9.05334 45.0692 9.41601C45.4745 9.77868 46.0132 10.0453 46.6852 10.216C47.3572 10.376 48.1039 10.5253 48.9252 10.664C50.4186 10.8987 51.7999 11.2933 53.0692 11.848C54.3386 12.4027 55.3572 13.144 56.1252 14.072C56.8932 14.9893 57.2772 16.1147 57.2772 17.448C57.2772 18.8027 56.8932 19.992 56.1252 21.016C55.3572 22.0293 54.3386 22.8187 53.0692 23.384C51.7999 23.9493 50.4186 24.232 48.9252 24.232Z" fill="white"/>
<path d="M23.2987 23.816V1.416H37.3467V5.32H27.2027V9.864H35.2507V13.768H27.2027V19.912H37.3467V23.816H23.2987Z" fill="white"/>
<path d="M2.07999 23.816V1.416H9.50398C11.0506 1.416 12.496 1.70933 13.84 2.296C15.1946 2.872 16.384 3.67734 17.408 4.712C18.4426 5.736 19.248 6.92534 19.824 8.28C20.4106 9.624 20.704 11.0693 20.704 12.616C20.704 14.1627 20.4106 15.6133 19.824 16.968C19.248 18.312 18.4426 19.5013 17.408 20.536C16.384 21.56 15.1946 22.3653 13.84 22.952C12.496 23.528 11.0506 23.816 9.50398 23.816H2.07999ZM5.98399 19.912H9.50398C10.496 19.912 11.4293 19.7253 12.304 19.352C13.1893 18.968 13.968 18.4453 14.64 17.784C15.312 17.112 15.84 16.3387 16.224 15.464C16.608 14.5787 16.8 13.6293 16.8 12.616C16.8 11.6027 16.608 10.6587 16.224 9.784C15.84 8.90934 15.312 8.136 14.64 7.464C13.968 6.792 13.1946 6.26934 12.32 5.896C11.4453 5.512 10.5066 5.32 9.50398 5.32H5.98399V19.912Z" fill="white"/>
</svg>
