<svg width="280" height="150" viewBox="0 0 280 150" fill="none" xmlns="http://www.w3.org/2000/svg">
<rect width="280" height="150" rx="18.1417" fill="black"/>
<g clip-path="url(#clip0_604_1355)">
<path d="M60.291 62.9032H53.3428V103.151H60.4825V62.9032H60.291ZM36.7931 60.1245V62.4541H30.8571V69.0217H36.7931V103.123H43.7139V60.1245C43.7139 55.1286 45.7382 52.7149 49.8961 52.7149H52.6863V46.063H49.8961C41.5802 46.063 36.7931 51.1992 36.7931 60.1245ZM186.917 93.2435L179.285 62.4541H171.188L182.266 102.814L182.348 103.123H191.485L202.509 62.9873L202.646 62.4541H194.549L186.917 93.2435ZM85.731 61.6682C82.0654 61.6682 79.0017 62.9031 76.6492 65.3169V62.4541H69.5096V103.123H76.6492V76.9366C76.6492 74.0457 78.2084 68.6007 84.1444 68.6007C88.4118 68.6007 90.5728 70.9303 90.5728 75.5333V103.123H97.7124V75.1123C97.7124 66.4396 93.4451 61.6682 85.731 61.6682ZM121.402 61.6682C117.736 61.6682 114.672 62.9031 112.32 65.3169V62.4541H105.18V103.123H112.32V76.9366C112.32 74.0457 113.879 68.6007 119.815 68.6007C124.082 68.6007 126.244 70.9303 126.244 75.5333V103.123H133.383V75.1123C133.383 66.4396 129.116 61.6682 121.402 61.6682ZM154.337 61.6682C144.243 61.6682 139.1 68.7691 139.1 82.8026C139.1 96.8361 144.216 103.937 154.337 103.937C164.431 103.937 169.574 96.8361 169.574 82.8026C169.574 68.7691 164.458 61.6682 154.337 61.6682ZM162.297 82.8026C162.297 92.7383 159.917 96.9764 154.337 96.9764C147.334 96.9764 146.377 89.8193 146.377 82.8026C146.377 75.7859 147.334 68.6288 154.337 68.6288C159.917 68.6288 162.297 72.8669 162.297 82.8026ZM232.544 102.674C232.49 102.028 232.216 98.8288 232.216 97.0325V75.3649C232.216 72.1652 231.231 61.6963 218.539 61.6963C207.487 61.6963 205.326 70.5093 204.916 73.2037L204.834 73.6809H211.837L211.919 73.344C212.63 70.2567 214.873 68.6288 218.402 68.6288C223.9 68.6288 225.049 72.5301 225.049 75.7859V77.2173C223.572 77.1611 222.013 77.1331 220.837 77.1331C214.244 77.1331 209.402 78.9574 206.393 82.5781C203.63 85.918 203.412 89.7351 203.412 90.8017C203.412 95.6573 206.038 103.909 215.94 103.909C219.688 103.909 222.779 102.646 225.131 100.148C225.213 101.327 225.35 102.393 225.378 102.73L225.432 103.095H232.544V102.674ZM225.077 83.3359V88.2476C225.077 92.4576 222.04 96.9764 217.144 96.9764C212.986 96.9764 210.715 94.8433 210.715 90.9701C210.715 86.0864 214.463 83.2797 220.973 83.2797H222.013C222.861 83.2797 223.9 83.2797 225.077 83.3359Z" fill="white"/>
<path d="M243.105 103.543C245.809 103.543 248.002 101.294 248.002 98.5195C248.002 95.7448 245.809 93.4955 243.105 93.4955C240.401 93.4955 238.209 95.7448 238.209 98.5195C238.209 101.294 240.401 103.543 243.105 103.543Z" fill="white"/>
</g>
<defs>
<clipPath id="clip0_604_1355">
<rect width="217.143" height="57.874" fill="white" transform="translate(30.8571 46.063)"/>
</clipPath>
</defs>
</svg>
