<svg width="261" height="144" viewBox="0 0 261 144" fill="none" xmlns="http://www.w3.org/2000/svg">
<rect x="-17" width="277.795" height="144" rx="18.1417" fill="black"/>
<g clip-path="url(#clip0_576_1441)">
<path d="M42.8153 60.3873H35.9219V99.0253H43.0053V60.3873H42.8153ZM19.5025 57.7198V59.9562H13.6133V66.2611H19.5025V98.9984H26.3688V57.7198C26.3688 52.9237 28.3771 50.6065 32.5023 50.6065H35.2706V44.2207H32.5023C24.2519 44.2207 19.5025 49.1515 19.5025 57.7198ZM168.444 89.514L160.872 59.9562H152.839L163.83 98.702L163.912 98.9984H172.976L183.913 60.4681L184.049 59.9562H176.016L168.444 89.514ZM68.055 59.2017C64.4184 59.2017 61.3787 60.3873 59.0447 62.7045V59.9562H51.9613V98.9984H59.0447V73.8594C59.0447 71.0841 60.5917 65.8569 66.481 65.8569C70.7147 65.8569 72.8587 68.0933 72.8587 72.5122V98.9984H79.9421V72.108C79.9421 63.7822 75.7084 59.2017 68.055 59.2017ZM103.445 59.2017C99.8082 59.2017 96.7686 60.3873 94.4346 62.7045V59.9562H87.3512V98.9984H94.4346V73.8594C94.4346 71.0841 95.9816 65.8569 101.871 65.8569C106.105 65.8569 108.249 68.0933 108.249 72.5122V98.9984H115.332V72.108C115.332 63.7822 111.098 59.2017 103.445 59.2017ZM136.121 59.2017C126.106 59.2017 121.004 66.0186 121.004 79.4907C121.004 92.9629 126.079 99.7798 136.121 99.7798C146.135 99.7798 151.238 92.9629 151.238 79.4907C151.238 66.0186 146.162 59.2017 136.121 59.2017ZM144.018 79.4907C144.018 89.029 141.657 93.0976 136.121 93.0976C129.173 93.0976 128.223 86.2268 128.223 79.4907C128.223 72.7547 129.173 65.8839 136.121 65.8839C141.657 65.8839 144.018 69.9525 144.018 79.4907ZM213.713 98.5673C213.658 97.9476 213.387 94.8759 213.387 93.1515V72.3505C213.387 69.2789 212.41 59.2287 199.817 59.2287C188.853 59.2287 186.709 67.6892 186.302 70.2758L186.22 70.7339H193.168L193.249 70.4105C193.955 67.4467 196.18 65.8839 199.681 65.8839C205.136 65.8839 206.276 69.6291 206.276 72.7547V74.1288C204.811 74.0749 203.264 74.048 202.097 74.048C195.556 74.048 190.753 75.7994 187.767 79.2752C185.026 82.4815 184.809 86.146 184.809 87.1698C184.809 91.8312 187.414 99.7528 197.239 99.7528C200.957 99.7528 204.024 98.5403 206.358 96.1423C206.439 97.2739 206.575 98.2978 206.602 98.6212L206.656 98.9714H213.713V98.5673ZM206.303 80.0027V84.7179C206.303 88.7596 203.291 93.0976 198.433 93.0976C194.308 93.0976 192.055 91.0498 192.055 87.3315C192.055 82.6432 195.773 79.9488 202.233 79.9488H203.264C204.105 79.9488 205.136 79.9488 206.303 80.0027Z" fill="white"/>
<path d="M224.19 99.4019C226.873 99.4019 229.048 97.2426 229.048 94.5789C229.048 91.9152 226.873 89.7559 224.19 89.7559C221.507 89.7559 219.332 91.9152 219.332 94.5789C219.332 97.2426 221.507 99.4019 224.19 99.4019Z" fill="white"/>
</g>
<defs>
<clipPath id="clip0_576_1441">
<rect width="215.433" height="55.5591" fill="white" transform="translate(13.6133 44.2207)"/>
</clipPath>
</defs>
</svg>
