<svg width="280" height="150" viewBox="0 0 280 150" fill="none" xmlns="http://www.w3.org/2000/svg">
<rect width="280" height="150" rx="18.1417" fill="black"/>
<path d="M73.6236 99.8991H61.6317L54.8656 79.8267C53.6567 76.2589 52.7207 72.5515 51.9826 69.4024C51.5814 73.0372 51.1107 76.1863 50.3726 80.1059L46.8211 99.8991H36.9045L45.4785 52.6857H57.5399L64.0387 71.15C65.3812 75.0696 66.4509 79.1232 67.3228 82.7636C67.7239 78.9892 68.3925 74.4387 69.0665 70.6643L72.3506 52.6857H82.2672L73.6236 99.8991Z" fill="white"/>
<path d="M92.3086 86.4705C92.2391 87.0288 92.2391 87.7993 92.2391 88.2907C92.2391 91.3002 93.3784 92.3498 97.5985 92.3498C100.749 92.3498 104.231 91.5793 107.451 90.2505V98.3632C103.498 99.8316 98.8715 100.669 94.3839 100.669C85.3392 100.669 82.1888 96.1242 82.1888 88.5699C82.1888 73.3215 91.5009 64.3657 101.353 64.3657C110.468 64.3657 112.81 69.0502 112.81 73.249C112.81 82.1322 104.637 86.1187 92.3086 86.4705ZM100.284 72.1993C96.5983 72.1993 94.3197 75.9067 93.3142 79.6141C99.4117 79.4745 103.027 78.073 103.027 74.6504C103.027 73.1094 102.022 72.2048 100.278 72.2048L100.284 72.1993Z" fill="white"/>
<path d="M137.806 73.3181H130.773L128.227 87.4498C127.622 90.8054 128.157 91.7881 130.505 91.7881C132.046 91.7881 133.255 91.5759 134.394 91.2967L133.324 99.6886C130.912 100.32 128.163 100.666 126.087 100.666C118.717 100.666 116.508 97.0309 118.048 88.3543L120.728 73.3181H115.77L117.38 65.1328H122.268L124.146 54.8481L134.533 52.7488L132.254 65.1272H139.358L137.817 73.3125L137.806 73.3181Z" fill="white"/>
<path d="M149.333 99.899H139.283L147.124 57.0909V56.9513C145.584 56.6722 143.439 56.393 141.497 56.2534L142.706 49.397C147.595 48.8386 153.093 48.5594 158.656 48.766L149.344 99.899H149.333Z" fill="white"/>
<path d="M169.498 99.8989H159.447L164.336 73.3888V73.2492C162.86 72.9701 160.651 72.6909 158.709 72.5513L159.982 65.6949C164.807 65.1365 170.3 64.8574 175.863 65.0639L169.498 99.8989ZM172.247 61.4961C168.765 61.4961 166.417 58.6988 166.417 55.6224C166.417 51.7028 169.631 48.9055 173.049 48.9055C176.467 48.9055 178.879 51.7028 178.879 54.6397C178.879 58.6263 175.665 61.4961 172.247 61.4961Z" fill="white"/>
<path d="M195.965 99.9006H185.444L179.817 65.1382H190.402L192.076 76.7517C192.477 79.8282 192.745 83.0443 192.878 85.9867H193.012L203.266 63.6028L213.118 66.4727L195.965 99.9062V99.9006Z" fill="white"/>
<path d="M222.027 86.4705C221.958 87.0288 221.958 87.7993 221.958 88.2907C221.958 91.3002 223.097 92.3498 227.317 92.3498C230.468 92.3498 233.95 91.5793 237.17 90.2505V98.3632C233.217 99.8316 228.59 100.669 224.103 100.669C215.058 100.669 211.907 96.1242 211.907 88.5699C211.907 73.3215 221.22 64.3657 231.072 64.3657C240.186 64.3657 242.529 69.0502 242.529 73.249C242.529 82.1322 234.356 86.1187 222.027 86.4705ZM230.002 72.1993C226.317 72.1993 224.038 75.9067 223.033 79.6141C229.13 79.4745 232.746 78.073 232.746 74.6504C232.746 73.1094 231.741 72.2048 229.997 72.2048L230.002 72.1993Z" fill="white"/>
</svg>
