<svg width="278" height="144" viewBox="0 0 278 144" fill="none" xmlns="http://www.w3.org/2000/svg">
<rect width="277.795" height="144" rx="18.1417" fill="black"/>
<path d="M73.0433 95.903H61.1458L54.4329 76.6335C53.2336 73.2084 52.305 69.6493 51.5727 66.6262C51.1747 70.1156 50.7077 73.1387 49.9754 76.9015L46.4518 95.903H36.6133L45.1198 50.5781H57.0863L63.5338 68.3039C64.8658 72.0667 65.9271 75.9581 66.7921 79.4529C67.1901 75.8295 67.8534 71.461 68.522 67.8376L71.7803 50.5781H81.6188L73.0433 95.903Z" fill="white"/>
<path d="M91.5812 83.0116C91.5122 83.5476 91.5122 84.2873 91.5122 84.759C91.5122 87.6481 92.6425 88.6558 96.8294 88.6558C99.955 88.6558 103.41 87.9161 106.604 86.6404V94.4286C102.683 95.8383 98.0924 96.6423 93.6401 96.6423C84.6666 96.6423 81.541 92.2792 81.541 85.027C81.541 70.3886 90.7799 61.791 100.555 61.791C109.597 61.791 111.921 66.2881 111.921 70.3189C111.921 78.8468 103.813 82.6739 91.5812 83.0116ZM99.4933 69.3112C95.8371 69.3112 93.5764 72.8703 92.5788 76.4294C98.6284 76.2954 102.216 74.95 102.216 71.6643C102.216 70.1849 101.218 69.3166 99.488 69.3166L99.4933 69.3112Z" fill="white"/>
<path d="M136.721 70.3852H129.743L127.217 83.9516C126.617 87.173 127.148 88.1164 129.477 88.1164C131.005 88.1164 132.205 87.9127 133.335 87.6447L132.274 95.7009C129.88 96.3066 127.153 96.6389 125.094 96.6389C117.781 96.6389 115.59 93.1495 117.118 84.8199L119.777 70.3852H114.857L116.455 62.5273H121.305L123.168 52.6541L133.473 50.6387L131.212 62.522H138.26L136.731 70.3799L136.721 70.3852Z" fill="white"/>
<path d="M148.157 95.903H138.186L145.965 54.8072V54.6732C144.437 54.4052 142.309 54.1372 140.382 54.0032L141.582 47.421C146.432 46.885 151.887 46.617 157.406 46.8153L148.167 95.903H148.157Z" fill="white"/>
<path d="M168.162 95.9029H158.191L163.042 70.4532V70.3192C161.577 70.0512 159.385 69.7832 157.459 69.6492L158.722 63.067C163.509 62.531 168.958 62.263 174.477 62.4613L168.162 95.9029ZM170.89 59.0362C167.435 59.0362 165.106 56.3508 165.106 53.3974C165.106 49.6346 168.295 46.9492 171.686 46.9492C175.077 46.9492 177.47 49.6346 177.47 52.454C177.47 56.2811 174.281 59.0362 170.89 59.0362Z" fill="white"/>
<path d="M194.421 95.9045H183.983L178.4 62.5326H188.902L190.563 73.6816C190.961 76.635 191.226 79.7224 191.359 82.5472H191.492L201.665 61.0586L211.439 63.8137L194.421 95.9099V95.9045Z" fill="white"/>
<path d="M220.278 83.0116C220.209 83.5476 220.209 84.2873 220.209 84.759C220.209 87.6481 221.34 88.6558 225.527 88.6558C228.652 88.6558 232.107 87.9161 235.301 86.6404V94.4286C231.38 95.8383 226.79 96.6423 222.337 96.6423C213.364 96.6423 210.238 92.2792 210.238 85.027C210.238 70.3886 219.477 61.791 229.252 61.791C238.294 61.791 240.619 66.2881 240.619 70.3189C240.619 78.8468 232.51 82.6739 220.278 83.0116ZM228.191 69.3112C224.534 69.3112 222.274 72.8703 221.276 76.4294C227.326 76.2954 230.913 74.95 230.913 71.6643C230.913 70.1849 229.915 69.3166 228.185 69.3166L228.191 69.3112Z" fill="white"/>
</svg>
