<svg width="245" height="127" viewBox="0 0 245 127" fill="none" xmlns="http://www.w3.org/2000/svg">
<rect width="245" height="127" rx="16" fill="#768B9B"/>
<g clip-path="url(#clip0_308_29)">
<path d="M128.593 61.5819C128.593 68.5 123.816 73.6593 116.858 73.6593C110.077 73.6593 104.711 68.7931 104.711 61.5819C104.711 54.3706 110.313 49.5631 116.84 49.5631C123.227 49.5631 128.593 54.4292 128.593 61.5819ZM136.2 61.9336C136.2 50.2666 128.593 42 116.858 42C111.631 42.0077 106.62 44.0714 102.919 47.7404C99.2177 51.4093 97.127 56.3854 97.1037 61.5819C97.1037 72.8971 105.595 81.2223 116.858 81.2223C121.222 81.2223 125.939 79.4049 128.593 76.7666V80.8119H136.2V61.9336ZM174.393 61.5819C174.393 68.0896 169.735 73.6593 162.246 73.6593C160.651 73.6656 159.072 73.357 157.599 72.7516C156.125 72.1461 154.787 71.2558 153.663 70.1323C152.538 69.0088 151.649 67.6744 151.048 66.2066C150.446 64.7388 150.143 63.1668 150.157 61.5819C150.157 58.3865 151.434 55.322 153.707 53.0626C155.979 50.8031 159.061 49.5337 162.275 49.5337C165.489 49.5337 168.571 50.8031 170.844 53.0626C173.116 55.322 174.393 58.3865 174.393 61.5819V61.5819ZM182 61.5819C182 51.3219 173.155 42 162.246 42C151.042 42 142.55 50.3838 142.55 61.9336V94.3551H150.157V76.8838C151.985 78.5841 157.233 81.2223 162.246 81.2223C174.039 81.2223 182 72.1936 182 61.5819V61.5819ZM78.0393 95C88.2998 95 93.371 87.906 93.371 80.1084C93.3961 77.5755 92.6937 75.0881 91.3462 72.9383C89.9988 70.7886 88.0622 69.0658 85.7641 67.9723C89.8329 65.9204 92.4865 61.1128 92.4865 55.8363C92.4865 48.3319 86.5307 42 77.6855 42C68.8403 42 62.7666 47.8042 62.5307 56.0122H70.0786C70.1656 54.134 70.9829 52.3628 72.358 51.0722C73.7332 49.7815 75.5587 49.0723 77.4496 49.094C81.7543 49.094 84.7027 51.9082 84.7027 56.0708C84.7027 60.9956 81.1057 64.4546 75.5037 64.4546H73.7936V71.5487H75.5037C81.7543 71.5487 85.8821 74.5973 85.8821 79.7566C85.8821 84.7987 82.5209 87.4956 77.9803 87.4956C73.4398 87.4956 69.7838 84.7987 69.5479 80.2843H62C62.2359 88.3164 67.8968 95 78.0393 95Z" fill="white"/>
</g>
<defs>
<clipPath id="clip0_308_29">
<rect width="120" height="53" fill="white" transform="translate(62 42)"/>
</clipPath>
</defs>
</svg>
