<svg width="245" height="127" viewBox="0 0 245 127" fill="none" xmlns="http://www.w3.org/2000/svg">
<rect width="245" height="127" rx="16" fill="#768B9B"/>
<g clip-path="url(#clip0_307_739)">
<path d="M133.154 62.3891L165.691 20.1375H160.885L128.24 62.3891H133.154Z" fill="white"/>
<path d="M78 18V107.831H167.831V18H78ZM165.691 105.691H80.1386V97.137H83.9107C83.958 96.8074 86.0707 93.7732 86.3599 93.4841C86.6456 93.1894 93.8974 83.6617 93.8974 83.6617H106.613L108.102 88.8142C108.102 88.8142 104.389 93.6652 103.392 94.8364C102.802 95.5282 101.112 97.137 101.112 97.137H107.094C107.094 97.137 107.299 96.642 107.779 95.7521C108.26 94.8634 109.953 92.8069 109.953 92.8069C109.953 92.8069 110.694 95.1097 110.752 95.4979C110.827 95.9805 111.03 97.137 111.03 97.137H117.078C117.078 97.137 117.292 96.6769 117.773 95.7881C118.25 94.8994 120.003 92.9779 120.003 92.9779C120.003 92.9779 120.675 95.1097 120.734 95.4979C120.811 95.9805 121.011 97.137 121.011 97.137H128.742C128.742 97.137 127.587 95.1334 127.324 94.464C127.175 94.0927 124.755 86.5181 124.755 86.5181L126.77 83.6606H139.584C139.584 83.6606 142.502 93.0487 142.849 94.2896C143.077 95.2234 143.204 96.1774 143.227 97.137H151.295C150.073 96.2719 147.001 85.4145 145.509 81.243L141.601 67.698C141.411 67.1827 141.267 65.3186 141.267 65.3186H135.024C134.69 66.2085 134.119 67.0264 133.731 67.7452C133.251 68.6362 125.321 79.0346 123.578 81.243C123.322 81.5715 123.173 81.7549 123.173 81.7459C123.173 81.7256 123.118 81.531 123.04 81.243C122.752 80.2417 122.163 78.2325 122.163 78.2325C122.163 78.2325 128.92 69.6454 129.61 68.7712C131.662 66.1747 132.834 65.3186 132.834 65.3186H126.436C126.383 66.0127 126.161 66.6833 125.789 67.2716C125.482 67.743 120.245 74.3085 120.245 74.3085C120.245 74.3085 118.598 68.3685 118.286 67.4066C118.093 66.7282 118.008 66.0235 118.035 65.3186H110.356C110.645 65.6471 111.532 67.8397 111.532 67.8397L115.317 79.4947L113.103 82.3264C113.009 82.1846 109.003 69.0424 108.832 68.4945C108.64 67.8746 108.438 65.3186 108.438 65.3186H101.863C101.863 65.3186 100.587 68.0974 99.7012 69.3832C99.3356 69.9154 95.1675 75.4999 90.726 81.243C85.7839 87.8287 80.403 94.5079 80.286 94.5934C80.2346 94.6385 80.1857 94.6866 80.1397 94.7374V20.1375H165.691V105.69V105.691ZM103.47 73.6909C103.758 74.8406 105.413 79.9402 105.413 79.9402H96.8685C96.8685 79.9402 102.264 73.3725 103.18 71.4015C103.281 71.1821 103.301 71.352 103.301 71.4566C103.265 72.2055 103.322 72.9559 103.47 73.6909V73.6909ZM114.58 86.7859L116.855 83.8361C116.855 83.8361 118.179 87.8524 118.396 88.0852L116.045 91.3162L114.58 86.7859ZM136.297 73.6909C136.587 74.8406 138.243 79.9402 138.243 79.9402H129.698C129.698 79.9402 135.094 73.3725 136.009 71.4015C136.111 71.1821 136.129 71.352 136.129 71.4566C136.093 72.2055 136.15 72.9559 136.297 73.6909V73.6909Z" fill="white"/>
</g>
<defs>
<clipPath id="clip0_307_739">
<rect width="90" height="90" fill="white" transform="translate(78 18)"/>
</clipPath>
</defs>
</svg>
