<svg width="245" height="127" viewBox="0 0 245 127" fill="none" xmlns="http://www.w3.org/2000/svg">
<rect width="245" height="127" rx="16" fill="#768B9B"/>
<g clip-path="url(#clip0_296_1328)">
<path d="M52.7546 53.258H46.675V87.3346H52.9221V53.258H52.7546ZM32.194 50.9054V52.8778H27V58.4384H32.194V87.3109H38.2497V50.9054C38.2497 46.6756 40.0209 44.6319 43.6591 44.6319H46.1005V39H43.6591C36.3827 39 32.194 43.3487 32.194 50.9054ZM163.552 78.9462L156.874 52.8778H149.789L159.483 87.0495L159.555 87.3109H167.549L177.195 53.3293L177.315 52.8778H170.23L163.552 78.9462ZM75.0146 52.2124C71.8073 52.2124 69.1265 53.258 67.068 55.3016V52.8778H60.8209V87.3109H67.068V65.1397C67.068 62.692 68.4324 58.082 73.6264 58.082C77.3603 58.082 79.2512 60.0543 79.2512 63.9515V87.3109H85.4984V63.5951C85.4984 56.2522 81.7644 52.2124 75.0146 52.2124ZM106.227 52.2124C103.019 52.2124 100.338 53.258 98.2799 55.3016V52.8778H92.0328V87.3109H98.2799V65.1397C98.2799 62.692 99.6442 58.082 104.838 58.082C108.572 58.082 110.463 60.0543 110.463 63.9515V87.3109H116.71V63.5951C116.71 56.2522 112.976 52.2124 106.227 52.2124ZM135.045 52.2124C126.213 52.2124 121.713 58.2245 121.713 70.1062C121.713 81.9879 126.189 88 135.045 88C143.877 88 148.377 81.9879 148.377 70.1062C148.377 58.2245 143.901 52.2124 135.045 52.2124ZM142.01 70.1062C142.01 78.5184 139.928 82.1067 135.045 82.1067C128.917 82.1067 128.08 76.047 128.08 70.1062C128.08 64.1654 128.917 58.1057 135.045 58.1057C139.928 58.1057 142.01 61.694 142.01 70.1062ZM203.476 86.9307C203.429 86.3841 203.189 83.6751 203.189 82.1542V63.8089C203.189 61.0999 202.328 52.2362 191.221 52.2362C181.552 52.2362 179.661 59.6979 179.302 61.9791L179.23 62.3831H185.357L185.429 62.098C186.051 59.484 188.014 58.1057 191.102 58.1057C195.913 58.1057 196.918 61.4088 196.918 64.1654V65.3773C195.626 65.3298 194.261 65.306 193.232 65.306C187.464 65.306 183.227 66.8506 180.594 69.9161C178.177 72.7439 177.985 75.9758 177.985 76.8788C177.985 80.9898 180.283 87.9762 188.948 87.9762C192.227 87.9762 194.931 86.9069 196.99 84.792C197.062 85.79 197.181 86.693 197.205 86.9782L197.253 87.2871H203.476V86.9307ZM196.942 70.5577V74.7163C196.942 78.2808 194.285 82.1067 190.001 82.1067C186.363 82.1067 184.376 80.3007 184.376 77.0213C184.376 72.8865 187.655 70.5102 193.352 70.5102H194.261C195.003 70.5102 195.913 70.5102 196.942 70.5577Z" fill="white"/>
<path d="M212.716 87.6673C215.082 87.6673 217 85.7629 217 83.4137C217 81.0645 215.082 79.16 212.716 79.16C210.349 79.16 208.431 81.0645 208.431 83.4137C208.431 85.7629 210.349 87.6673 212.716 87.6673Z" fill="white"/>
</g>
<defs>
<clipPath id="clip0_296_1328">
<rect width="190" height="49" fill="white" transform="translate(27 39)"/>
</clipPath>
</defs>
</svg>
