<svg width="245" height="127" viewBox="0 0 245 127" fill="none" xmlns="http://www.w3.org/2000/svg">
<rect width="245" height="127" rx="16" fill="#768B9B"/>
<path d="M64.4193 84.5814H53.9264L48.006 67.5867C46.9483 64.566 46.1293 61.4271 45.4834 58.7609C45.1324 61.8383 44.7206 64.5045 44.0747 67.8231L40.9671 84.5814H32.2901L39.7924 44.6073H50.3461L56.0325 60.2405C57.2072 63.5591 58.1433 66.9911 58.9061 70.0733C59.2571 66.8776 59.8421 63.0249 60.4318 59.8292L63.3055 44.6073H71.9825L64.4193 84.5814Z" fill="white"/>
<path d="M80.7718 73.2122C80.7109 73.685 80.7109 74.3373 80.7109 74.7533C80.7109 77.3013 81.7078 78.1901 85.4004 78.1901C88.1571 78.1901 91.2038 77.5377 94.0213 76.4126V83.2814C90.5627 84.5247 86.5143 85.2337 82.5877 85.2337C74.6735 85.2337 71.9169 81.3857 71.9169 74.9897C71.9169 62.0794 80.0651 54.4969 88.6859 54.4969C96.6609 54.4969 98.7108 58.4631 98.7108 62.018C98.7108 69.5391 91.5595 72.9144 80.7718 73.2122ZM87.7499 61.1293C84.5253 61.1293 82.5315 64.2682 81.6516 67.4071C86.987 67.2889 90.1508 66.1024 90.1508 63.2045C90.1508 61.8998 89.2709 61.134 87.7452 61.134L87.7499 61.1293Z" fill="white"/>
<path d="M120.581 62.0747H114.427L112.199 74.0395C111.67 76.8806 112.138 77.7126 114.193 77.7126C115.541 77.7126 116.598 77.533 117.595 77.2966L116.659 84.4017C114.548 84.9359 112.143 85.229 110.327 85.229C103.878 85.229 101.945 82.1516 103.293 74.8053L105.637 62.0747H101.299L102.708 55.1445H106.985L108.628 46.4368L117.717 44.6593L115.723 55.1398H121.938L120.59 62.07L120.581 62.0747Z" fill="white"/>
<path d="M130.667 84.5814H121.873L128.734 48.3372V48.219C127.386 47.9826 125.509 47.7463 123.81 47.6281L124.868 41.823C129.146 41.3502 133.957 41.1139 138.824 41.2888L130.676 84.5814H130.667Z" fill="white"/>
<path d="M148.311 84.5814H139.517L143.795 62.1362V62.018C142.503 61.7816 140.57 61.5453 138.871 61.4271L139.985 55.622C144.207 55.1492 149.013 54.9129 153.88 55.0878L148.311 84.5814ZM150.717 52.067C147.67 52.067 145.615 49.6986 145.615 47.0939C145.615 43.7753 148.428 41.407 151.419 41.407C154.409 41.407 156.52 43.7753 156.52 46.2619C156.52 49.6372 153.707 52.067 150.717 52.067Z" fill="white"/>
<path d="M171.468 84.5814H162.263L157.339 55.1492H166.601L168.066 64.982C168.417 67.5868 168.651 70.3097 168.768 72.801H168.885L177.857 53.8492L186.478 56.2791L171.468 84.5861V84.5814Z" fill="white"/>
<path d="M194.275 73.2122C194.214 73.685 194.214 74.3373 194.214 74.7533C194.214 77.3013 195.211 78.1901 198.903 78.1901C201.66 78.1901 204.707 77.5377 207.524 76.4126V83.2814C204.066 84.5247 200.017 85.2337 196.091 85.2337C188.177 85.2337 185.42 81.3857 185.42 74.9897C185.42 62.0794 193.568 54.4969 202.189 54.4969C210.164 54.4969 212.214 58.4631 212.214 62.018C212.214 69.5391 205.063 72.9144 194.275 73.2122ZM201.253 61.1293C198.028 61.1293 196.035 64.2682 195.155 67.4071C200.49 67.2889 203.654 66.1024 203.654 63.2045C203.654 61.8998 202.774 61.134 201.248 61.134L201.253 61.1293Z" fill="white"/>
</svg>
