<svg width="245" height="127" viewBox="0 0 245 127" fill="none" xmlns="http://www.w3.org/2000/svg">
<rect width="245" height="127" rx="16" fill="#768B9B"/>
<path d="M18.8338 69.5907V56.4998H23.9986C24.9915 56.4998 25.8373 56.6894 26.5362 57.0687C27.2351 57.4437 27.7677 57.9657 28.1342 58.6347C28.505 59.2995 28.6903 60.0666 28.6903 60.9359C28.6903 61.8052 28.5028 62.5722 28.1278 63.237C27.7528 63.9018 27.2095 64.4195 26.4979 64.7903C25.7905 65.161 24.9339 65.3464 23.9283 65.3464H20.6364V63.1284H23.4808C24.0135 63.1284 24.4524 63.0367 24.7976 62.8535C25.147 62.666 25.407 62.4082 25.5774 62.0801C25.7521 61.7477 25.8395 61.3663 25.8395 60.9359C25.8395 60.5012 25.7521 60.122 25.5774 59.7981C25.407 59.47 25.147 59.2164 24.7976 59.0374C24.4481 58.8542 24.005 58.7626 23.468 58.7626H21.6016V69.5907H18.8338ZM38.426 62.5722L35.9331 62.7257C35.8905 62.5126 35.7989 62.3208 35.6582 62.1504C35.5176 61.9757 35.3322 61.8372 35.1021 61.7349C34.8763 61.6284 34.6057 61.5751 34.2903 61.5751C33.8685 61.5751 33.5126 61.6646 33.2229 61.8436C32.9331 62.0183 32.7882 62.2526 32.7882 62.5467C32.7882 62.7811 32.882 62.9792 33.0695 63.1411C33.257 63.3031 33.5787 63.433 34.0347 63.5311L35.8116 63.889C36.7662 64.085 37.4778 64.4004 37.9466 64.835C38.4153 65.2697 38.6497 65.8407 38.6497 66.5481C38.6497 67.1916 38.4601 67.7562 38.0808 68.242C37.7058 68.7278 37.1902 69.107 36.5339 69.3798C35.882 69.6482 35.1298 69.7825 34.2776 69.7825C32.9778 69.7825 31.9423 69.5119 31.171 68.9707C30.404 68.4252 29.9544 67.6838 29.8223 66.7463L32.5006 66.6056C32.5815 67.0019 32.7776 67.3045 33.0886 67.5133C33.3997 67.7178 33.7982 67.8201 34.2839 67.8201C34.7612 67.8201 35.1447 67.7285 35.4345 67.5453C35.7285 67.3578 35.8777 67.117 35.882 66.823C35.8777 66.5758 35.7733 66.3734 35.5687 66.2157C35.3642 66.0538 35.0489 65.9302 34.6227 65.845L32.9224 65.5062C31.9636 65.3144 31.2499 64.982 30.7811 64.509C30.3166 64.036 30.0844 63.433 30.0844 62.7001C30.0844 62.0694 30.2548 61.5261 30.5957 61.0701C30.9409 60.6142 31.4246 60.2626 32.0467 60.0154C32.6732 59.7683 33.4061 59.6447 34.2456 59.6447C35.4857 59.6447 36.4615 59.9068 37.1732 60.4309C37.8891 60.9551 38.3067 61.6688 38.426 62.5722ZM41.8655 73.2725C41.5203 73.2725 41.1965 73.2448 40.8939 73.1894C40.5956 73.1383 40.3484 73.0722 40.1524 72.9913L40.7661 70.9586C41.0857 71.0566 41.3733 71.1099 41.629 71.1184C41.8889 71.1269 42.1126 71.0673 42.3001 70.9394C42.4919 70.8116 42.6474 70.5943 42.7668 70.2874L42.9266 69.872L39.4046 59.7725H42.2682L44.3009 66.9828H44.4031L46.455 59.7725H49.3378L45.5217 70.6518C45.3385 71.1802 45.0892 71.6404 44.7739 72.0325C44.4628 72.4288 44.0686 72.7335 43.5913 72.9465C43.1141 73.1639 42.5388 73.2725 41.8655 73.2725ZM54.6709 69.7825C53.6652 69.7825 52.8002 69.5694 52.0758 69.1433C51.3556 68.7129 50.8016 68.1163 50.4138 67.3535C50.0303 66.5907 49.8385 65.7129 49.8385 64.72C49.8385 63.7143 50.0324 62.8322 50.4202 62.0737C50.8123 61.3109 51.3684 60.7164 52.0885 60.2903C52.8087 59.8599 53.6652 59.6447 54.6581 59.6447C55.5147 59.6447 56.2647 59.8002 56.9081 60.1113C57.5516 60.4224 58.0608 60.8592 58.4358 61.4217C58.8108 61.9842 59.0175 62.6447 59.0559 63.4032H56.4863C56.4138 62.9132 56.2221 62.519 55.911 62.2207C55.6042 61.9181 55.2015 61.7668 54.7029 61.7668C54.281 61.7668 53.9124 61.8819 53.5971 62.112C53.286 62.3379 53.0431 62.6681 52.8684 63.1028C52.6937 63.5374 52.6063 64.0637 52.6063 64.6816C52.6063 65.308 52.6915 65.8407 52.862 66.2796C53.0367 66.7186 53.2817 67.0531 53.5971 67.2832C53.9124 67.5133 54.281 67.6284 54.7029 67.6284C55.014 67.6284 55.2931 67.5644 55.5402 67.4366C55.7917 67.3088 55.9983 67.1234 56.1603 66.8805C56.3265 66.6333 56.4351 66.3372 56.4863 65.992H59.0559C59.0133 66.742 58.8087 67.4025 58.4422 67.9735C58.08 68.5403 57.5793 68.9835 56.9401 69.3031C56.3009 69.6227 55.5445 69.7825 54.6709 69.7825ZM63.3423 63.9146V69.5907H60.6193V56.4998H63.2656V61.5048H63.3807C63.6023 60.9252 63.9602 60.4714 64.4545 60.1433C64.9488 59.8109 65.5689 59.6447 66.3146 59.6447C66.9964 59.6447 67.5909 59.7938 68.098 60.0921C68.6094 60.3862 69.0057 60.8102 69.2869 61.3642C69.5724 61.9139 69.7131 62.5722 69.7088 63.3393V69.5907H66.9858V63.8251C66.99 63.22 66.8366 62.7491 66.5256 62.4124C66.2187 62.0758 65.7883 61.9075 65.2344 61.9075C64.8636 61.9075 64.5355 61.9863 64.25 62.144C63.9687 62.3017 63.7471 62.5318 63.5852 62.8343C63.4275 63.1326 63.3466 63.4927 63.3423 63.9146ZM76.1078 69.7825C75.1149 69.7825 74.2562 69.5715 73.5318 69.1497C72.8116 68.7235 72.2555 68.1312 71.8635 67.3727C71.4714 66.6099 71.2754 65.7257 71.2754 64.72C71.2754 63.7058 71.4714 62.8194 71.8635 62.0609C72.2555 61.2981 72.8116 60.7058 73.5318 60.2839C74.2562 59.8578 75.1149 59.6447 76.1078 59.6447C77.1007 59.6447 77.9572 59.8578 78.6774 60.2839C79.4018 60.7058 79.9601 61.2981 80.3521 62.0609C80.7442 62.8194 80.9402 63.7058 80.9402 64.72C80.9402 65.7257 80.7442 66.6099 80.3521 67.3727C79.9601 68.1312 79.4018 68.7235 78.6774 69.1497C77.9572 69.5715 77.1007 69.7825 76.1078 69.7825ZM76.1206 67.6731C76.5723 67.6731 76.9494 67.5453 77.252 67.2896C77.5545 67.0296 77.7825 66.6759 77.9359 66.2285C78.0936 65.7811 78.1724 65.2718 78.1724 64.7008C78.1724 64.1298 78.0936 63.6205 77.9359 63.1731C77.7825 62.7257 77.5545 62.372 77.252 62.112C76.9494 61.8521 76.5723 61.7221 76.1206 61.7221C75.6646 61.7221 75.2811 61.8521 74.97 62.112C74.6632 62.372 74.431 62.7257 74.2733 63.1731C74.1199 63.6205 74.0432 64.1298 74.0432 64.7008C74.0432 65.2718 74.1199 65.7811 74.2733 66.2285C74.431 66.6759 74.6632 67.0296 74.97 67.2896C75.2811 67.5453 75.6646 67.6731 76.1206 67.6731ZM87.7531 59.7725V61.818H81.8404V59.7725H87.7531ZM83.1828 57.4203H85.9058V66.5737C85.9058 66.8251 85.9441 67.0211 86.0208 67.1617C86.0975 67.2981 86.2041 67.394 86.3404 67.4494C86.4811 67.5048 86.643 67.5325 86.8262 67.5325C86.9541 67.5325 87.0819 67.5218 87.2098 67.5005C87.3376 67.4749 87.4356 67.4558 87.5038 67.443L87.9321 69.4693C87.7957 69.5119 87.6039 69.5609 87.3568 69.6163C87.1096 69.6759 86.8092 69.7122 86.4555 69.7249C85.7993 69.7505 85.224 69.6632 84.7296 69.4629C84.2396 69.2626 83.8582 68.9515 83.5855 68.5296C83.3127 68.1078 83.1785 67.5751 83.1828 66.9316V57.4203ZM92.2808 63.9146V69.5907H89.5578V56.4998H92.2041V61.5048H92.3192C92.5408 60.9252 92.8987 60.4714 93.393 60.1433C93.8874 59.8109 94.5074 59.6447 95.2531 59.6447C95.9349 59.6447 96.5294 59.7938 97.0365 60.0921C97.5479 60.3862 97.9442 60.8102 98.2254 61.3642C98.5109 61.9139 98.6516 62.5722 98.6473 63.3393V69.5907H95.9243V63.8251C95.9286 63.22 95.7751 62.7491 95.4641 62.4124C95.1572 62.0758 94.7269 61.9075 94.1729 61.9075C93.8021 61.9075 93.474 61.9863 93.1885 62.144C92.9072 62.3017 92.6857 62.5318 92.5237 62.8343C92.3661 63.1326 92.2851 63.4927 92.2808 63.9146ZM105.085 69.7825C104.075 69.7825 103.205 69.5779 102.477 69.1688C101.752 68.7555 101.194 68.1717 100.802 67.4174C100.41 66.6589 100.214 65.7619 100.214 64.7264C100.214 63.7164 100.41 62.8301 100.802 62.0673C101.194 61.3045 101.746 60.71 102.458 60.2839C103.173 59.8578 104.013 59.6447 104.976 59.6447C105.624 59.6447 106.227 59.7491 106.785 59.9579C107.347 60.1624 107.838 60.4714 108.255 60.8847C108.677 61.2981 109.005 61.818 109.239 62.4444C109.474 63.0666 109.591 63.7953 109.591 64.6305V65.3784H101.301V63.6909H107.028C107.028 63.2988 106.943 62.9515 106.772 62.649C106.602 62.3464 106.365 62.1099 106.063 61.9394C105.764 61.7647 105.417 61.6774 105.021 61.6774C104.607 61.6774 104.241 61.7732 103.921 61.965C103.606 62.1525 103.359 62.4061 103.18 62.7257C103.001 63.041 102.909 63.3926 102.905 63.7803V65.3847C102.905 65.8705 102.994 66.2903 103.173 66.644C103.357 66.9977 103.614 67.2704 103.947 67.4622C104.279 67.6539 104.673 67.7498 105.129 67.7498C105.432 67.7498 105.709 67.7072 105.96 67.622C106.212 67.5367 106.427 67.4089 106.606 67.2384C106.785 67.068 106.921 66.8592 107.015 66.612L109.534 66.7782C109.406 67.3833 109.144 67.9117 108.747 68.3634C108.355 68.8109 107.848 69.1603 107.226 69.4117C106.608 69.6589 105.894 69.7825 105.085 69.7825ZM111.188 69.5907V59.7725H113.828V61.4856H113.93C114.109 60.8762 114.41 60.416 114.832 60.1049C115.253 59.7896 115.739 59.6319 116.289 59.6319C116.425 59.6319 116.572 59.6404 116.73 59.6575C116.888 59.6745 117.026 59.698 117.145 59.7278V62.144C117.018 62.1056 116.841 62.0715 116.615 62.0417C116.389 62.0119 116.182 61.997 115.995 61.997C115.594 61.997 115.236 62.0843 114.921 62.259C114.61 62.4295 114.363 62.6681 114.18 62.9749C114.001 63.2818 113.911 63.6355 113.911 64.036V69.5907H111.188ZM120.892 69.7761C120.265 69.7761 119.707 69.6674 119.217 69.4501C118.727 69.2285 118.339 68.9025 118.054 68.4721C117.772 68.0374 117.632 67.4963 117.632 66.8485C117.632 66.3031 117.732 65.845 117.932 65.4742C118.133 65.1035 118.405 64.8052 118.75 64.5793C119.096 64.3535 119.488 64.183 119.927 64.068C120.37 63.9529 120.834 63.872 121.32 63.8251C121.891 63.7654 122.351 63.71 122.701 63.6589C123.05 63.6035 123.304 63.5225 123.461 63.416C123.619 63.3095 123.698 63.1518 123.698 62.943V62.9046C123.698 62.4998 123.57 62.1866 123.314 61.965C123.063 61.7434 122.705 61.6326 122.24 61.6326C121.75 61.6326 121.361 61.7413 121.071 61.9586C120.781 62.1717 120.589 62.4401 120.495 62.764L117.977 62.5595C118.105 61.9629 118.356 61.4472 118.731 61.0126C119.106 60.5737 119.59 60.237 120.182 60.0026C120.779 59.764 121.469 59.6447 122.253 59.6447C122.799 59.6447 123.321 59.7086 123.819 59.8365C124.322 59.9643 124.767 60.1624 125.155 60.4309C125.547 60.6994 125.856 61.0445 126.082 61.4664C126.308 61.884 126.421 62.3847 126.421 62.9686V69.5907H123.838V68.2292H123.762C123.604 68.536 123.393 68.8066 123.129 69.041C122.865 69.2711 122.547 69.4522 122.177 69.5843C121.806 69.7122 121.378 69.7761 120.892 69.7761ZM121.672 67.8968C122.072 67.8968 122.426 67.818 122.733 67.6603C123.039 67.4984 123.28 67.2811 123.455 67.0083C123.63 66.7356 123.717 66.4267 123.717 66.0815V65.0396C123.632 65.095 123.515 65.1461 123.365 65.193C123.221 65.2356 123.057 65.2761 122.873 65.3144C122.69 65.3485 122.507 65.3805 122.324 65.4103C122.14 65.4359 121.974 65.4593 121.825 65.4806C121.505 65.5275 121.226 65.6021 120.988 65.7043C120.749 65.8066 120.564 65.9451 120.432 66.1198C120.299 66.2903 120.233 66.5034 120.233 66.759C120.233 67.1298 120.368 67.4132 120.636 67.6092C120.909 67.8009 121.254 67.8968 121.672 67.8968ZM128.353 73.2725V59.7725H131.038V61.4217H131.16C131.279 61.1575 131.451 60.889 131.677 60.6163C131.907 60.3393 132.206 60.1092 132.572 59.9259C132.943 59.7384 133.403 59.6447 133.953 59.6447C134.669 59.6447 135.329 59.8322 135.934 60.2072C136.54 60.5779 137.023 61.1383 137.385 61.8883C137.748 62.634 137.929 63.5694 137.929 64.6944C137.929 65.7896 137.752 66.7143 137.398 67.4686C137.049 68.2186 136.571 68.7874 135.966 69.1752C135.366 69.5588 134.692 69.7505 133.946 69.7505C133.418 69.7505 132.968 69.6632 132.598 69.4884C132.231 69.3137 131.931 69.0943 131.696 68.8301C131.462 68.5616 131.283 68.291 131.16 68.0183H131.076V73.2725H128.353ZM131.019 64.6816C131.019 65.2654 131.1 65.7747 131.262 66.2093C131.424 66.644 131.658 66.9828 131.965 67.2257C132.272 67.4643 132.645 67.5836 133.084 67.5836C133.527 67.5836 133.902 67.4622 134.209 67.2193C134.515 66.9721 134.748 66.6312 134.905 66.1965C135.067 65.7576 135.148 65.2526 135.148 64.6816C135.148 64.1149 135.069 63.6163 134.912 63.1859C134.754 62.7555 134.522 62.4188 134.215 62.1759C133.908 61.933 133.531 61.8116 133.084 61.8116C132.64 61.8116 132.265 61.9288 131.959 62.1632C131.656 62.3975 131.424 62.7299 131.262 63.1603C131.1 63.5907 131.019 64.0978 131.019 64.6816ZM139.564 69.5907V59.7725H142.287V69.5907H139.564ZM140.932 58.5069C140.527 58.5069 140.18 58.3727 139.89 58.1042C139.605 57.8315 139.462 57.5055 139.462 57.1262C139.462 56.7512 139.605 56.4295 139.89 56.161C140.18 55.8883 140.527 55.7519 140.932 55.7519C141.337 55.7519 141.682 55.8883 141.967 56.161C142.257 56.4295 142.402 56.7512 142.402 57.1262C142.402 57.5055 142.257 57.8315 141.967 58.1042C141.682 58.3727 141.337 58.5069 140.932 58.5069ZM148.763 69.7825C147.753 69.7825 146.884 69.5779 146.155 69.1688C145.43 68.7555 144.872 68.1717 144.48 67.4174C144.088 66.6589 143.892 65.7619 143.892 64.7264C143.892 63.7164 144.088 62.8301 144.48 62.0673C144.872 61.3045 145.424 60.71 146.136 60.2839C146.852 59.8578 147.691 59.6447 148.654 59.6447C149.302 59.6447 149.905 59.7491 150.463 59.9579C151.026 60.1624 151.516 60.4714 151.933 60.8847C152.355 61.2981 152.683 61.818 152.918 62.4444C153.152 63.0666 153.269 63.7953 153.269 64.6305V65.3784H144.979V63.6909H150.706C150.706 63.2988 150.621 62.9515 150.45 62.649C150.28 62.3464 150.043 62.1099 149.741 61.9394C149.442 61.7647 149.095 61.6774 148.699 61.6774C148.286 61.6774 147.919 61.7732 147.599 61.965C147.284 62.1525 147.037 62.4061 146.858 62.7257C146.679 63.041 146.587 63.3926 146.583 63.7803V65.3847C146.583 65.8705 146.673 66.2903 146.852 66.644C147.035 66.9977 147.293 67.2704 147.625 67.4622C147.957 67.6539 148.352 67.7498 148.808 67.7498C149.11 67.7498 149.387 67.7072 149.639 67.622C149.89 67.5367 150.105 67.4089 150.284 67.2384C150.463 67.068 150.599 66.8592 150.693 66.612L153.212 66.7782C153.084 67.3833 152.822 67.9117 152.425 68.3634C152.033 68.8109 151.526 69.1603 150.904 69.4117C150.286 69.6589 149.572 69.7825 148.763 69.7825ZM158.903 69.5907V56.4998H161.671V62.2718H161.844L166.555 56.4998H169.872L165.014 62.3613L169.93 69.5907H166.619L163.033 64.2086L161.671 65.8705V69.5907H158.903ZM173.882 69.7761C173.256 69.7761 172.697 69.6674 172.207 69.4501C171.717 69.2285 171.33 68.9025 171.044 68.4721C170.763 68.0374 170.622 67.4963 170.622 66.8485C170.622 66.3031 170.722 65.845 170.923 65.4742C171.123 65.1035 171.396 64.8052 171.741 64.5793C172.086 64.3535 172.478 64.183 172.917 64.068C173.36 63.9529 173.825 63.872 174.31 63.8251C174.881 63.7654 175.342 63.71 175.691 63.6589C176.04 63.6035 176.294 63.5225 176.452 63.416C176.609 63.3095 176.688 63.1518 176.688 62.943V62.9046C176.688 62.4998 176.56 62.1866 176.305 61.965C176.053 61.7434 175.695 61.6326 175.231 61.6326C174.741 61.6326 174.351 61.7413 174.061 61.9586C173.771 62.1717 173.58 62.4401 173.486 62.764L170.967 62.5595C171.095 61.9629 171.347 61.4472 171.722 61.0126C172.097 60.5737 172.58 60.237 173.173 60.0026C173.769 59.764 174.459 59.6447 175.244 59.6447C175.789 59.6447 176.311 59.7086 176.81 59.8365C177.312 59.9643 177.758 60.1624 178.146 60.4309C178.538 60.6994 178.847 61.0445 179.072 61.4664C179.298 61.884 179.411 62.3847 179.411 62.9686V69.5907H176.829V68.2292H176.752C176.594 68.536 176.383 68.8066 176.119 69.041C175.855 69.2711 175.538 69.4522 175.167 69.5843C174.796 69.7122 174.368 69.7761 173.882 69.7761ZM174.662 67.8968C175.062 67.8968 175.416 67.818 175.723 67.6603C176.03 67.4984 176.271 67.2811 176.445 67.0083C176.62 66.7356 176.707 66.4267 176.707 66.0815V65.0396C176.622 65.095 176.505 65.1461 176.356 65.193C176.211 65.2356 176.047 65.2761 175.864 65.3144C175.68 65.3485 175.497 65.3805 175.314 65.4103C175.131 65.4359 174.964 65.4593 174.815 65.4806C174.496 65.5275 174.217 65.6021 173.978 65.7043C173.739 65.8066 173.554 65.9451 173.422 66.1198C173.29 66.2903 173.224 66.5034 173.224 66.759C173.224 67.1298 173.358 67.4132 173.626 67.6092C173.899 67.8009 174.244 67.8968 174.662 67.8968ZM187.64 65.4103V59.7725H190.363V69.5907H187.749V67.8073H187.646C187.425 68.3826 187.056 68.845 186.54 69.1944C186.029 69.5438 185.405 69.7186 184.668 69.7186C184.011 69.7186 183.434 69.5694 182.935 69.2711C182.437 68.9728 182.047 68.5488 181.766 67.9991C181.489 67.4494 181.348 66.791 181.344 66.024V59.7725H184.067V65.5382C184.071 66.1177 184.227 66.5758 184.533 66.9124C184.84 67.2491 185.251 67.4174 185.767 67.4174C186.095 67.4174 186.402 67.3428 186.688 67.1937C186.973 67.0403 187.203 66.8144 187.378 66.5161C187.557 66.2178 187.644 65.8492 187.64 65.4103ZM200.53 62.5722L198.037 62.7257C197.995 62.5126 197.903 62.3208 197.762 62.1504C197.622 61.9757 197.436 61.8372 197.206 61.7349C196.98 61.6284 196.71 61.5751 196.394 61.5751C195.973 61.5751 195.617 61.6646 195.327 61.8436C195.037 62.0183 194.892 62.2526 194.892 62.5467C194.892 62.7811 194.986 62.9792 195.174 63.1411C195.361 63.3031 195.683 63.433 196.139 63.5311L197.916 63.889C198.87 64.085 199.582 64.4004 200.051 64.835C200.519 65.2697 200.754 65.8407 200.754 66.5481C200.754 67.1916 200.564 67.7562 200.185 68.242C199.81 68.7278 199.294 69.107 198.638 69.3798C197.986 69.6482 197.234 69.7825 196.382 69.7825C195.082 69.7825 194.046 69.5119 193.275 68.9707C192.508 68.4252 192.058 67.6838 191.926 66.7463L194.605 66.6056C194.686 67.0019 194.882 67.3045 195.193 67.5133C195.504 67.7178 195.902 67.8201 196.388 67.8201C196.865 67.8201 197.249 67.7285 197.539 67.5453C197.833 67.3578 197.982 67.117 197.986 66.823C197.982 66.5758 197.877 66.3734 197.673 66.2157C197.468 66.0538 197.153 65.9302 196.727 65.845L195.026 65.5062C194.068 65.3144 193.354 64.982 192.885 64.509C192.421 64.036 192.188 63.433 192.188 62.7001C192.188 62.0694 192.359 61.5261 192.7 61.0701C193.045 60.6142 193.529 60.2626 194.151 60.0154C194.777 59.7683 195.51 59.6447 196.35 59.6447C197.59 59.6447 198.566 59.9068 199.277 60.4309C199.993 60.9551 200.411 61.6688 200.53 62.5722ZM206.725 69.7825C205.719 69.7825 204.854 69.5694 204.129 69.1433C203.409 68.7129 202.855 68.1163 202.467 67.3535C202.084 66.5907 201.892 65.7129 201.892 64.72C201.892 63.7143 202.086 62.8322 202.474 62.0737C202.866 61.3109 203.422 60.7164 204.142 60.2903C204.862 59.8599 205.719 59.6447 206.712 59.6447C207.568 59.6447 208.318 59.8002 208.962 60.1113C209.605 60.4224 210.114 60.8592 210.489 61.4217C210.864 61.9842 211.071 62.6447 211.109 63.4032H208.54C208.467 62.9132 208.276 62.519 207.965 62.2207C207.658 61.9181 207.255 61.7668 206.756 61.7668C206.335 61.7668 205.966 61.8819 205.651 62.112C205.34 62.3379 205.097 62.6681 204.922 63.1028C204.747 63.5374 204.66 64.0637 204.66 64.6816C204.66 65.308 204.745 65.8407 204.916 66.2796C205.09 66.7186 205.335 67.0531 205.651 67.2832C205.966 67.5133 206.335 67.6284 206.756 67.6284C207.068 67.6284 207.347 67.5644 207.594 67.4366C207.845 67.3088 208.052 67.1234 208.214 66.8805C208.38 66.6333 208.489 66.3372 208.54 65.992H211.109C211.067 66.742 210.862 67.4025 210.496 67.9735C210.134 68.5403 209.633 68.9835 208.994 69.3031C208.354 69.6227 207.598 69.7825 206.725 69.7825ZM215.396 63.9146V69.5907H212.673V56.4998H215.319V61.5048H215.434C215.656 60.9252 216.014 60.4714 216.508 60.1433C217.002 59.8109 217.622 59.6447 218.368 59.6447C219.05 59.6447 219.644 59.7938 220.152 60.0921C220.663 60.3862 221.059 60.8102 221.341 61.3642C221.626 61.9139 221.767 62.5722 221.762 63.3393V69.5907H219.039V63.8251C219.044 63.22 218.89 62.7491 218.579 62.4124C218.272 62.0758 217.842 61.9075 217.288 61.9075C216.917 61.9075 216.589 61.9863 216.304 62.144C216.022 62.3017 215.801 62.5318 215.639 62.8343C215.481 63.1326 215.4 63.4927 215.396 63.9146ZM225.317 69.7569C224.895 69.7569 224.533 69.6078 224.23 69.3095C223.932 69.0069 223.783 68.6447 223.783 68.2228C223.783 67.8052 223.932 67.4472 224.23 67.149C224.533 66.8507 224.895 66.7015 225.317 66.7015C225.726 66.7015 226.084 66.8507 226.391 67.149C226.698 67.4472 226.851 67.8052 226.851 68.2228C226.851 68.5041 226.779 68.7619 226.634 68.9963C226.493 69.2264 226.308 69.4117 226.078 69.5524C225.847 69.6887 225.594 69.7569 225.317 69.7569Z" fill="white"/>
</svg>
