<svg width="245" height="127" viewBox="0 0 245 127" fill="none" xmlns="http://www.w3.org/2000/svg">
<rect width="245" height="127" rx="16" fill="#768B9B"/>
<path d="M68.2208 53.5135C68.1867 53.4673 68.0675 53.3808 67.8631 53.2538C67.6588 53.1269 67.4033 52.9942 67.0968 52.8558C66.7902 52.7058 66.4554 52.5846 66.092 52.4923C65.7286 52.3885 65.3655 52.3365 65.0021 52.3365C64.0031 52.3365 63.5034 52.6769 63.5034 53.3577C63.5034 53.7731 63.7191 54.0673 64.1506 54.2404C64.5934 54.4135 65.2235 54.6212 66.0409 54.8635C66.813 55.0827 67.4772 55.3365 68.0334 55.625C68.6012 55.9019 69.0382 56.2769 69.3448 56.75C69.6513 57.2115 69.8046 57.8231 69.8046 58.5846C69.8046 59.2769 69.6796 59.8654 69.4299 60.35C69.1802 60.8231 68.8396 61.2096 68.4081 61.5096C67.9766 61.7981 67.4885 62.0115 66.9435 62.15C66.4098 62.2769 65.8536 62.3404 65.2746 62.3404C64.3777 62.3404 63.4694 62.2077 62.5497 61.9423C61.6301 61.6654 60.8184 61.2904 60.1144 60.8173L61.3406 58.3423C61.386 58.4 61.5337 58.5096 61.7834 58.6712C62.0331 58.8211 62.3454 58.9827 62.72 59.1558C63.0947 59.3288 63.5034 59.4788 63.9462 59.6058C64.4003 59.7211 64.8601 59.7788 65.3257 59.7788C66.3134 59.7788 66.8073 59.4731 66.8073 58.8615C66.8073 58.55 66.6768 58.3077 66.4156 58.1346C66.1659 57.95 65.8195 57.7942 65.3767 57.6673C64.934 57.5288 64.4343 57.3731 63.8781 57.2C62.7654 56.8538 61.9424 56.4327 61.4087 55.9365C60.8865 55.4404 60.6253 54.7308 60.6253 53.8077C60.6253 52.9423 60.824 52.2154 61.2214 51.6269C61.6301 51.0269 62.1751 50.5769 62.8563 50.2769C63.5375 49.9654 64.2811 49.8096 65.0872 49.8096C65.9387 49.8096 66.7449 49.9596 67.5055 50.2596C68.2661 50.5481 68.9133 50.8481 69.4469 51.1596L68.2208 53.5135ZM79.9756 52.4058H76.2971V62.2019H73.5042V52.4058H69.8086V49.9135H79.9756V52.4058ZM82.5759 49.9135H85.5902L89.7456 62.2019H86.8845L85.9478 59.45H82.1842L81.2646 62.2019H78.4035L82.5759 49.9135ZM85.488 57.4942L84.0745 52.7692L82.627 57.4942H85.488ZM99.7918 62.2019V54.8808L97.1862 60.2115H95.6535L93.0479 54.8808V62.2019H90.255V49.9135H93.2863L96.4199 56.3346L99.5704 49.9135H102.585V62.2019H99.7918ZM113.763 62.2019V54.8808L111.157 60.2115H109.624L107.019 54.8808V62.2019H104.226V49.9135H107.257L110.391 56.3346L113.541 49.9135H116.556V62.2019H113.763ZM128.745 53.5135C128.711 53.4673 128.592 53.3808 128.387 53.2538C128.183 53.1269 127.928 52.9942 127.621 52.8558C127.314 52.7058 126.979 52.5846 126.616 52.4923C126.253 52.3885 125.889 52.3365 125.526 52.3365C124.527 52.3365 124.028 52.6769 124.028 53.3577C124.028 53.7731 124.243 54.0673 124.675 54.2404C125.118 54.4135 125.748 54.6212 126.565 54.8635C127.337 55.0827 128.001 55.3365 128.558 55.625C129.125 55.9019 129.562 56.2769 129.869 56.75C130.175 57.2115 130.329 57.8231 130.329 58.5846C130.329 59.2769 130.204 59.8654 129.954 60.35C129.704 60.8231 129.364 61.2096 128.932 61.5096C128.501 61.7981 128.013 62.0115 127.468 62.15C126.934 62.2769 126.378 62.3404 125.799 62.3404C124.902 62.3404 123.994 62.2077 123.074 61.9423C122.154 61.6654 121.342 61.2904 120.639 60.8173L121.865 58.3423C121.91 58.4 122.058 58.5096 122.308 58.6712C122.557 58.8211 122.87 58.9827 123.244 59.1558C123.619 59.3288 124.028 59.4788 124.47 59.6058C124.924 59.7211 125.384 59.7788 125.85 59.7788C126.838 59.7788 127.331 59.4731 127.331 58.8615C127.331 58.55 127.201 58.3077 126.94 58.1346C126.69 57.95 126.344 57.7942 125.901 57.6673C125.458 57.5288 124.959 57.3731 124.402 57.2C123.29 56.8538 122.466 56.4327 121.933 55.9365C121.411 55.4404 121.15 54.7308 121.15 53.8077C121.15 52.9423 121.348 52.2154 121.746 51.6269C122.154 51.0269 122.699 50.5769 123.38 50.2769C124.062 49.9654 124.805 49.8096 125.611 49.8096C126.463 49.8096 127.269 49.9596 128.03 50.2596C128.79 50.5481 129.437 50.8481 129.971 51.1596L128.745 53.5135ZM130.588 55.9538C130.588 55.2154 130.724 54.4827 130.997 53.7558C131.269 53.0288 131.667 52.3712 132.189 51.7827C132.711 51.1942 133.347 50.7269 134.096 50.3808C134.846 50.0231 135.697 49.8442 136.651 49.8442C137.775 49.8442 138.757 50.0923 139.597 50.5885C140.437 51.0846 141.062 51.7308 141.47 52.5269L139.324 54.05C139.143 53.6231 138.899 53.2885 138.592 53.0462C138.286 52.7923 137.957 52.6192 137.604 52.5269C137.253 52.4231 136.912 52.3712 136.583 52.3712C135.867 52.3712 135.277 52.5558 134.811 52.925C134.346 53.2942 134 53.7615 133.773 54.3269C133.546 54.8923 133.432 55.4692 133.432 56.0577C133.432 56.7039 133.563 57.3154 133.824 57.8923C134.085 58.4577 134.454 58.9135 134.931 59.2596C135.408 59.6058 135.97 59.7788 136.617 59.7788C136.957 59.7788 137.304 59.7269 137.656 59.6231C138.008 59.5077 138.331 59.3231 138.626 59.0692C138.933 58.8154 139.166 58.4865 139.324 58.0827L141.607 59.45C141.368 60.0615 140.976 60.5808 140.431 61.0077C139.886 61.4231 139.268 61.7461 138.575 61.9769C137.894 62.1961 137.218 62.3058 136.549 62.3058C135.675 62.3058 134.874 62.1269 134.147 61.7692C133.421 61.4 132.791 60.9154 132.257 60.3154C131.724 59.7038 131.309 59.0231 131.014 58.2731C130.73 57.5115 130.588 56.7385 130.588 55.9538ZM152.735 49.9135V62.2019H149.942V57.1654H145.123V62.2019H142.33V49.9135H145.123V54.6731H149.942V49.9135H152.735ZM154.371 62.2019V49.9135H159.821C160.389 49.9135 160.911 50.0346 161.388 50.2769C161.876 50.5077 162.296 50.825 162.648 51.2288C163 51.6211 163.272 52.0654 163.466 52.5615C163.67 53.0577 163.772 53.5596 163.772 54.0673C163.772 54.8288 163.59 55.5327 163.227 56.1788C162.875 56.8135 162.398 57.2981 161.797 57.6327L164.453 62.2019H161.371L159.055 58.2385H157.164V62.2019H154.371ZM157.164 55.7635H159.719C160.048 55.7635 160.332 55.6077 160.57 55.2962C160.809 54.9731 160.928 54.5635 160.928 54.0673C160.928 53.5712 160.792 53.1731 160.519 52.8731C160.247 52.5615 159.952 52.4058 159.634 52.4058H157.164V55.7635ZM173.597 59.7096V62.2019H165.099V49.9135H173.444V52.4058H167.892V54.7942H172.661V57.0962H167.892V59.7096H173.597ZM174.613 62.2019V49.9135H177.406V62.2019H174.613ZM181.83 55.175V62.2019H179.037V49.9135H181.251L186.854 57.1481V49.9135H189.647V62.2019H187.365L181.83 55.175ZM199.776 59.7096V62.2019H191.278V49.9135H199.623V52.4058H194.071V54.7942H198.84V57.0962H194.071V59.7096H199.776ZM200.792 62.2019V49.9135H206.242C206.809 49.9135 207.331 50.0346 207.808 50.2769C208.296 50.5077 208.716 50.825 209.069 51.2288C209.42 51.6211 209.693 52.0654 209.886 52.5615C210.09 53.0577 210.193 53.5596 210.193 54.0673C210.193 54.8288 210.011 55.5327 209.648 56.1788C209.295 56.8135 208.819 57.2981 208.217 57.6327L210.874 62.2019H207.791L205.475 58.2385H203.585V62.2019H200.792ZM203.585 55.7635H206.139C206.468 55.7635 206.752 55.6077 206.991 55.2962C207.229 54.9731 207.349 54.5635 207.349 54.0673C207.349 53.5712 207.212 53.1731 206.94 52.8731C206.667 52.5615 206.372 52.4058 206.054 52.4058H203.585V55.7635ZM220.017 59.7096V62.2019H211.519V49.9135H219.864V52.4058H214.312V54.7942H219.081V57.0962H214.312V59.7096H220.017ZM221.033 62.2019V49.9135H223.826V62.2019H221.033Z" fill="white"/>
<path d="M61.5003 70.4123V76.6971H60.7552V69.0168H61.3725L66.3325 75.4207V69.0276H67.0776V76.6971H66.3858L61.5003 70.4123ZM73.2879 69.0168H73.9158L77.0558 76.6971H76.2681L75.2889 74.2957H71.8935L70.9249 76.6971H70.1266L73.2879 69.0168ZM75.1186 73.7007L73.5965 69.9038L72.0532 73.7007H75.1186ZM79.3274 72.8029C79.3274 72.3414 79.4053 71.8834 79.5615 71.4291C79.7246 70.9748 79.9588 70.5637 80.264 70.1959C80.5691 69.821 80.9452 69.5252 81.3923 69.3089C81.8393 69.0854 82.3466 68.9736 82.9143 68.9736C83.5813 68.9736 84.1561 69.1321 84.6386 69.4495C85.121 69.7595 85.4759 70.1598 85.703 70.6502L85.1176 71.018C84.9543 70.679 84.7485 70.4123 84.5003 70.2175C84.2518 70.0157 83.9858 69.8714 83.702 69.7848C83.4252 69.6983 83.1485 69.655 82.8718 69.655C82.4175 69.655 82.0166 69.7487 81.669 69.9363C81.3212 70.1165 81.0268 70.3618 80.7856 70.6719C80.5514 70.9819 80.3739 71.3246 80.2534 71.6995C80.1327 72.0744 80.0724 72.4567 80.0724 72.8461C80.0724 73.2717 80.1433 73.6791 80.2853 74.0685C80.4271 74.4508 80.6259 74.7933 80.8814 75.0961C81.1368 75.399 81.4349 75.6407 81.7755 75.8209C82.1231 75.994 82.4992 76.0805 82.9037 76.0805C83.1875 76.0805 83.4785 76.0301 83.7765 75.9291C84.0745 75.828 84.3513 75.6731 84.6067 75.4639C84.8622 75.2547 85.0714 74.9843 85.2347 74.6526L85.852 74.9772C85.6888 75.3594 85.444 75.684 85.1176 75.9507C84.7983 76.2175 84.4364 76.4195 84.0319 76.5565C83.6345 76.6934 83.2443 76.762 82.8611 76.762C82.343 76.762 81.8676 76.6502 81.4349 76.4267C81.0019 76.1958 80.6259 75.8929 80.3066 75.518C79.9943 75.1357 79.7531 74.7104 79.5828 74.2416C79.4125 73.7656 79.3274 73.286 79.3274 72.8029ZM95.0541 69.0168V76.6971H94.3196V73.1058H89.8386V76.6971H89.0935V69.0168H89.8386V72.4351H94.3196V69.0168H95.0541ZM104.881 69.0168V76.6971H104.147V73.1058H99.6658V76.6971H98.9207V69.0168H99.6658V72.4351H104.147V69.0168H104.881ZM111.09 69.0168H111.718L114.858 76.6971H114.07L113.091 74.2957H109.695L108.727 76.6971H107.928L111.09 69.0168ZM112.92 73.7007L111.398 69.9038L109.855 73.7007H112.92ZM117.91 76.6971V69.0168H118.655V76.0264H123.019V76.6971H117.91ZM130.254 69.6875H127.561V76.6971H126.816V69.6875H124.123V69.0168H130.254V69.6875ZM133.355 76.6971V69.0168H134.1V76.6971H133.355ZM140.997 76.7512C140.487 76.7512 140.015 76.643 139.582 76.4267C139.156 76.2032 138.784 75.9038 138.464 75.5288C138.145 75.1539 137.897 74.7355 137.719 74.274C137.549 73.8052 137.464 73.3292 137.464 72.8461C137.464 72.3341 137.549 71.8473 137.719 71.3858C137.897 70.917 138.142 70.5025 138.454 70.1418C138.766 69.774 139.135 69.4856 139.561 69.2764C139.986 69.0672 140.451 68.9627 140.955 68.9627C141.7 68.9627 142.307 69.1179 142.775 69.4279C143.243 69.7379 143.598 70.1418 143.839 70.6394L143.265 71.0288C143.023 70.5529 142.7 70.203 142.296 69.9796C141.892 69.7561 141.441 69.6442 140.944 69.6442C140.526 69.6442 140.146 69.7344 139.805 69.9147C139.472 70.0949 139.185 70.3365 138.943 70.6394C138.709 70.9423 138.528 71.2848 138.4 71.6671C138.273 72.0493 138.209 72.4459 138.209 72.857C138.209 73.2897 138.28 73.7007 138.422 74.0901C138.564 74.4724 138.762 74.8149 139.018 75.1178C139.28 75.4135 139.582 75.6478 139.922 75.8209C140.27 75.9868 140.646 76.0697 141.051 76.0697C141.484 76.0697 141.895 75.9652 142.285 75.756C142.683 75.5468 143.062 75.2223 143.424 74.7824V73.506H141.743V72.9219H144.052V76.6971H143.424V75.5721C142.729 76.3581 141.92 76.7512 140.997 76.7512ZM152.629 76.0264V76.6971H147.552V69.0168H152.533V69.6875H148.297V72.4567H151.991V73.0949H148.297V76.0264H152.629ZM163.734 76.7512C163.201 76.7512 162.719 76.643 162.286 76.4267C161.853 76.2032 161.481 75.9074 161.168 75.5397C160.856 75.1719 160.615 74.7571 160.445 74.2957C160.274 73.8268 160.189 73.3474 160.189 72.857C160.189 72.3449 160.278 71.8581 160.455 71.3966C160.633 70.9278 160.881 70.5133 161.2 70.1526C161.527 69.7848 161.906 69.4965 162.339 69.2873C162.772 69.0709 163.24 68.9627 163.744 68.9627C164.269 68.9627 164.748 69.0746 165.181 69.2981C165.614 69.5216 165.987 69.821 166.299 70.1959C166.618 70.5708 166.859 70.9892 167.022 71.4507C167.193 71.9122 167.278 72.3847 167.278 72.8678C167.278 73.387 167.182 73.8883 166.991 74.3714C166.806 74.8473 166.551 75.2655 166.224 75.6262L167.108 76.6971H166.373L165.809 76.0156C165.518 76.2465 165.195 76.4267 164.84 76.5565C164.493 76.6863 164.124 76.7512 163.734 76.7512ZM163.734 76.0697C164.053 76.0697 164.347 76.0193 164.617 75.9183C164.894 75.8101 165.142 75.6623 165.362 75.4748L164.415 74.3389H165.149L165.766 75.0745C166.015 74.7716 166.203 74.4255 166.331 74.036C166.466 73.6466 166.533 73.2535 166.533 72.857C166.533 72.4388 166.466 72.0385 166.331 71.6562C166.196 71.274 166.001 70.9315 165.745 70.6286C165.497 70.3257 165.202 70.0877 164.862 69.9147C164.521 69.7344 164.145 69.6442 163.734 69.6442C163.308 69.6442 162.921 69.7379 162.573 69.9255C162.233 70.1057 161.938 70.351 161.69 70.6611C161.449 70.9639 161.261 71.3064 161.126 71.6887C160.998 72.071 160.934 72.4604 160.934 72.857C160.934 73.2752 161.002 73.6754 161.136 74.0577C161.271 74.44 161.463 74.7824 161.711 75.0853C161.96 75.3882 162.254 75.6299 162.595 75.8101C162.942 75.9832 163.322 76.0697 163.734 76.0697ZM173.707 76.7512C173.111 76.7512 172.607 76.643 172.196 76.4267C171.791 76.2103 171.465 75.9183 171.216 75.5505C170.968 75.1827 170.791 74.7716 170.684 74.3173C170.578 73.8558 170.524 73.3799 170.524 72.8894V69.0168H171.259V72.8894C171.259 73.2933 171.298 73.6862 171.376 74.0685C171.461 74.4434 171.596 74.7824 171.78 75.0853C171.965 75.3882 172.213 75.6299 172.526 75.8101C172.838 75.9832 173.228 76.0697 173.696 76.0697C174.179 76.0697 174.576 75.9795 174.888 75.7993C175.208 75.6191 175.46 75.3774 175.644 75.0745C175.829 74.7645 175.956 74.4218 176.027 74.0469C176.105 73.6646 176.144 73.2788 176.144 72.8894V69.0168H176.889V72.8894C176.889 73.4015 176.833 73.8917 176.719 74.3606C176.606 74.822 176.421 75.2331 176.166 75.5937C175.918 75.9544 175.591 76.2391 175.186 76.4483C174.782 76.6502 174.289 76.7512 173.707 76.7512ZM182.665 69.0168H183.293L186.433 76.6971H185.645L184.666 74.2957H181.27L180.302 76.6971H179.504L182.665 69.0168ZM184.496 73.7007L182.974 69.9038L181.43 73.7007H184.496ZM189.485 76.6971V69.0168H190.23V76.0264H194.594V76.6971H189.485ZM197.66 76.6971V69.0168H198.405V76.6971H197.66ZM207.634 69.6875H204.941V76.6971H204.196V69.6875H201.503V69.0168H207.634V69.6875ZM212.349 69.0168H212.977L216.116 76.6971H215.329L214.35 74.2957H210.954L209.986 76.6971H209.187L212.349 69.0168ZM214.179 73.7007L212.657 69.9038L211.114 73.7007H214.179ZM211.561 67.8269V66.8101H212.178V67.8269H211.561ZM213.147 67.8269V66.8101H213.764V67.8269H213.147ZM223.806 69.6875H221.113V76.6971H220.368V69.6875H217.675V69.0168H223.806V69.6875Z" fill="white"/>
<path fill-rule="evenodd" clip-rule="evenodd" d="M50.7066 63.566L50.7047 79.0321C50.7047 80.6225 49.5741 82.0666 47.6614 83.226C47.5747 83.3164 47.4653 83.3818 47.3467 83.4183C44.8216 84.7182 42.0759 85.5143 39.2586 85.7661C39.2473 85.7661 39.236 85.7739 39.2247 85.7739H39.2152C37.9339 85.92 36.6449 85.995 35.3541 85.995C31.7982 86.0623 28.2593 85.4451 24.9277 84.176C24.8523 84.1587 24.7826 84.1297 24.7167 84.0894C21.8015 82.8299 20 81.0474 20 79.0358V47.9573C20 44.0556 26.7441 41 35.3542 41C43.9641 41 50.7083 44.0574 50.7083 47.9573V56.4184L50.7066 63.566ZM35.3505 53.3765C27.1891 53.3765 21.5039 50.5208 21.5039 47.9576C21.5039 45.3903 27.191 42.5347 35.3505 42.5347C43.512 42.5347 49.1971 45.3943 49.1971 47.9576C49.1971 50.519 43.512 53.3765 35.3505 53.3765ZM46.3592 52.8495C47.3974 52.3918 48.3547 51.765 49.1971 50.9958L49.1969 79.0315C49.0951 79.9276 48.6089 80.7294 47.8702 81.2237V75.2627C47.8702 74.8378 47.533 74.4936 47.1164 74.4936C46.7 74.4936 46.3628 74.8378 46.3628 75.2627V82.2122C44.3484 83.2005 42.1907 83.8465 39.9727 84.1234V64.9826C39.9727 64.5575 39.6354 64.2133 39.219 64.2133C38.8025 64.2133 38.4652 64.5575 38.4652 64.9826V84.3062C37.474 84.4003 36.4357 84.4542 35.3484 84.4542C32.1162 84.51 28.9015 83.9811 25.8507 82.8928V72.2322C25.8507 71.8073 25.5134 71.4631 25.0969 71.4631C24.6805 71.4631 24.3431 71.8073 24.3431 72.2322L24.3413 82.212C22.536 81.262 21.5033 80.1197 21.5033 79.0315L21.5052 50.9952C21.6541 51.1394 21.8105 51.2798 21.9801 51.4182V60.7408C21.9801 61.1658 22.3174 61.51 22.7339 61.51C23.1503 61.51 23.4876 61.1658 23.4876 60.7408V52.4185C25.2176 53.3146 27.0681 53.9491 28.9789 54.2991V71.1866C28.9789 71.6115 29.3162 71.9557 29.7327 71.9557C30.1491 71.9557 30.4864 71.6115 30.4864 71.1866V54.5625C32.0977 54.7971 33.724 54.9125 35.354 54.9105C38.5765 54.9547 41.7839 54.4606 44.8516 53.4491V68.8788C44.8516 69.3037 45.189 69.6479 45.6054 69.6479C46.0218 69.6479 46.3592 69.3037 46.3592 68.8788V52.8495Z" fill="white"/>
<path fill-rule="evenodd" clip-rule="evenodd" d="M39.7453 45.9865C39.8602 45.5808 39.6322 45.1558 39.2364 45.0347C37.972 44.6731 36.6642 44.4943 35.3508 44.5059C31.8307 44.5059 28.2651 45.6904 28.2651 47.9575C28.2651 50.2247 31.8286 51.4092 35.3508 51.4092V51.4111C35.7672 51.4111 36.1045 51.0669 36.1045 50.6419C36.1045 50.217 35.7672 49.8727 35.3508 49.8727C31.9984 49.8727 29.7732 48.7189 29.7732 47.9594C29.7732 47.1999 31.9968 46.0461 35.3508 46.0461V46.0442C36.5191 46.0327 37.6837 46.1884 38.8068 46.5096C38.999 46.5672 39.2063 46.5442 39.3816 46.4461C39.5587 46.348 39.6887 46.1826 39.7453 45.9865Z" fill="white"/>
<path d="M24.3438 47.9575C24.3438 45.0404 29.0756 42.8423 35.3486 42.8423C41.6219 42.8423 46.3592 45.0345 46.3592 47.9575C46.3592 50.0343 44.0054 51.7745 40.0613 52.6052C40.0104 52.6168 39.9595 52.6206 39.9105 52.6206C39.5242 52.6187 39.2019 52.3206 39.1624 51.9284C39.1247 51.538 39.381 51.1785 39.7597 51.0996C42.7597 50.4669 44.855 49.1767 44.855 47.9575C44.855 46.2692 40.7921 44.3809 35.3573 44.3809C29.9224 44.3809 25.8596 46.2692 25.8596 47.9575C25.9142 48.4902 26.195 48.9729 26.6284 49.2767C26.9412 49.5536 26.977 50.0343 26.7095 50.3554C26.4419 50.6766 25.9708 50.7189 25.6523 50.4497C24.8665 49.8651 24.3841 48.9478 24.3427 47.9575L24.3438 47.9575Z" fill="white"/>
</svg>
