<svg width="127" height="128" viewBox="0 0 127 128" fill="none" xmlns="http://www.w3.org/2000/svg">
<path d="M13.4089 59.3354L0.508105 56.4397L1.46575 52.1732C1.66569 51.2825 2.02216 50.4849 2.53516 49.7806C3.04201 49.0748 3.65957 48.494 4.38784 48.038C5.10997 47.5806 5.89836 47.2736 6.75301 47.117C7.6029 46.9528 8.47323 46.9707 9.364 47.1707C10.2548 47.3706 11.0523 47.7271 11.7567 48.2401C12.4563 48.7456 13.0378 49.36 13.5014 50.0835C13.9587 50.8057 14.2688 51.5948 14.4316 52.4508C14.5882 53.3054 14.5665 54.1782 14.3666 55.0689L13.4089 59.3354ZM12.4084 57.7558L13.0765 54.7794C13.2365 54.0667 13.254 53.3705 13.1291 52.6908C12.9994 52.0035 12.7512 51.3703 12.3843 50.7911C12.0175 50.2118 11.5535 49.7205 10.9923 49.3171C10.4263 48.9062 9.78705 48.6207 9.07444 48.4608C8.36182 48.3008 7.66494 48.2863 6.9838 48.4174C6.2979 48.5409 5.66465 48.7891 5.08407 49.1621C4.50486 49.529 4.01354 49.993 3.61012 50.5542C3.20054 51.114 2.91578 51.7502 2.75583 52.4628L2.08776 55.4392L12.4084 57.7558ZM16.7905 45.5876L5.05253 39.5019L8.75612 32.3585L9.92992 32.9671L6.8349 38.9367L10.524 40.8493L13.0843 35.911L14.2581 36.5196L11.6978 41.4579L16.2253 43.8053L19.3203 37.8356L20.4941 38.4442L16.7905 45.5876ZM25.6085 32.1394C25.1413 32.6676 24.6061 33.1062 24.0031 33.4554C23.4042 33.7998 22.7887 34.0204 22.1568 34.1171C21.5249 34.2137 20.93 34.1498 20.3721 33.9253L20.8452 32.692C21.2294 32.8469 21.6485 32.8814 22.1027 32.7956C22.5563 32.701 23.0024 32.5198 23.441 32.2521C23.8837 31.9796 24.2761 31.6501 24.6182 31.2634C25.0187 30.8107 25.3166 30.3219 25.5119 29.797C25.7072 29.2721 25.7769 28.7705 25.7208 28.2922C25.6601 27.8097 25.4458 27.4058 25.078 27.0804C24.7054 26.7508 24.2883 26.6047 23.8267 26.6418C23.3651 26.679 22.8907 26.8352 22.4036 27.1103C21.9159 27.3766 21.4445 27.6909 20.9894 28.0533C20.275 28.6234 19.5786 29.0875 18.9002 29.4457C18.2261 29.7992 17.5674 29.9689 16.9242 29.9548C16.2764 29.9365 15.6483 29.6582 15.0399 29.1201C14.4693 28.6153 14.1202 28.0123 13.9925 27.3109C13.8648 26.6095 13.9232 25.8878 14.1677 25.1458C14.4163 24.3991 14.8181 23.7121 15.3729 23.0849C15.8276 22.5709 16.3521 22.1396 16.9462 21.791C17.5404 21.4424 18.1556 21.2174 18.7916 21.116C19.4319 21.0099 20.0467 21.0704 20.636 21.2975L20.1433 22.5386C19.7544 22.3795 19.3331 22.3473 18.8795 22.442C18.4254 22.5278 17.9813 22.7067 17.5475 22.9785C17.1089 23.2463 16.7165 23.5758 16.3703 23.9672C15.9693 24.411 15.6734 24.8975 15.4828 25.4266C15.2917 25.9468 15.2265 26.4481 15.2872 26.9305C15.3433 27.4088 15.5528 27.8086 15.916 28.1298C16.3404 28.5052 16.7662 28.6843 17.1933 28.6671C17.6199 28.641 18.0608 28.4846 18.5161 28.1981C18.9713 27.9115 19.4586 27.565 19.9779 27.1585C20.6453 26.6225 21.3344 26.1856 22.0453 25.8477C22.7514 25.5056 23.4414 25.3385 24.1154 25.3463C24.7847 25.3499 25.3975 25.5978 25.954 26.0901C26.5199 26.5907 26.869 27.1938 27.0014 27.8993C27.1291 28.6007 27.0686 29.3247 26.82 30.0715C26.5755 30.8135 26.1717 31.5028 25.6085 32.1394ZM31.4308 25.5775L23.2943 15.1558L24.3365 14.3421L32.473 24.7639L31.4308 25.5775ZM41.4285 20.0488C40.611 20.4408 39.7684 20.6494 38.9006 20.6745C38.0358 20.6912 37.2004 20.5436 36.3946 20.2318C35.5859 19.9143 34.8529 19.4558 34.1954 18.8564C33.5351 18.2513 33.0008 17.523 32.5925 16.6714C32.176 15.8028 31.9442 14.919 31.8971 14.0199C31.8499 13.1207 31.9655 12.2623 32.2437 11.4446C32.5192 10.6213 32.9341 9.88466 33.4883 9.23484C34.0482 8.58231 34.7256 8.06548 35.5204 7.68435C36.4344 7.24605 37.3994 7.04515 38.4154 7.08164C39.4371 7.11541 40.4196 7.3879 41.363 7.89911L40.5762 8.98862C39.8362 8.6103 39.0692 8.416 38.2753 8.40571C37.487 8.39269 36.755 8.54816 36.0795 8.87212C35.438 9.17974 34.896 9.60024 34.4535 10.1336C34.0139 10.6586 33.6887 11.2545 33.4777 11.9212C33.2668 12.588 33.1835 13.2808 33.228 13.9996C33.2724 14.7184 33.4607 15.4241 33.7929 16.1168C34.1223 16.8037 34.5533 17.3895 35.086 17.8742C35.6187 18.3589 36.2082 18.7291 36.8545 18.9848C37.5037 19.2321 38.1748 19.3502 38.8677 19.3391C39.558 19.3223 40.2267 19.1588 40.8739 18.8484C41.4075 18.5925 41.8692 18.2594 42.259 17.8491C42.6517 17.4303 42.9664 16.9582 43.2032 16.4327C43.44 15.9072 43.5871 15.3548 43.6446 14.7757C43.7077 14.1938 43.6751 13.6089 43.5468 13.021L40.3279 14.5646L39.8093 13.4831L44.4163 11.2739C44.794 12.1053 44.9996 12.9563 45.0331 13.827C45.0666 14.6978 44.9457 15.5378 44.6704 16.3471C44.3981 17.148 43.9877 17.872 43.4391 18.5191C42.8935 19.1578 42.2233 19.6677 41.4285 20.0488ZM50.3021 15.8875L48.3061 2.81721L49.7252 2.6005L58.2597 12.2552L56.6244 1.54692L57.9314 1.34733L59.9274 14.4176L58.5177 14.6329L49.9738 4.9796L51.6091 15.6879L50.3021 15.8875ZM68.1957 14.8969C67.4947 14.8198 66.8278 14.6356 66.1947 14.3443C65.568 14.0536 65.0329 13.678 64.5895 13.2175C64.1461 12.7571 63.8552 12.2342 63.7169 11.6489L64.9973 11.3242C65.0923 11.7273 65.3058 12.0897 65.6378 12.4113C65.9767 12.7273 66.382 12.9872 66.8537 13.1911C67.3315 13.3957 67.8271 13.5262 68.3403 13.5827C68.9411 13.6488 69.5122 13.6102 70.0537 13.4671C70.5952 13.324 71.0451 13.0916 71.4035 12.77C71.7626 12.4421 71.969 12.0341 72.0227 11.546C72.0771 11.0516 71.956 10.6265 71.6595 10.2709C71.3629 9.91521 70.9617 9.61771 70.456 9.37839C69.9572 9.1335 69.4285 8.92966 68.8701 8.76687C67.9923 8.51196 67.2115 8.2107 66.5277 7.86311C65.8501 7.5162 65.3316 7.07595 64.9723 6.54236C64.6136 6.00251 64.4787 5.32892 64.5675 4.5216C64.6508 3.76434 64.9422 3.13131 65.4415 2.62251C65.9409 2.11371 66.5641 1.74522 67.3113 1.51705C68.0648 1.28957 68.8577 1.22161 69.69 1.31318C70.3722 1.38822 71.027 1.56794 71.6545 1.85232C72.2819 2.13671 72.8205 2.50949 73.2701 2.97068C73.7261 3.43255 74.0312 3.96967 74.1855 4.58206L72.8874 4.8953C72.7931 4.48588 72.5765 4.12318 72.2375 3.80719C71.9055 3.48563 71.5033 3.22603 71.031 3.02839C70.5594 2.82449 70.0639 2.69396 69.5444 2.63682C68.9506 2.56515 68.3826 2.60401 67.8404 2.75339C67.3052 2.89721 66.858 3.13305 66.4989 3.46092C66.1405 3.78253 65.9348 4.18428 65.8818 4.66618C65.8198 5.22943 65.919 5.68056 66.1794 6.01958C66.4468 6.35303 66.8288 6.62308 67.3254 6.82974C67.8221 7.03639 68.3862 7.23463 69.0177 7.42445C69.8405 7.66065 70.5949 7.97167 71.2809 8.3575C71.9675 8.73708 72.502 9.20443 72.8843 9.75955C73.2673 10.3084 73.4182 10.9521 73.337 11.6906C73.2544 12.4416 72.963 13.0746 72.463 13.5897C71.9636 14.0985 71.3372 14.4666 70.5838 14.6941C69.8366 14.9223 69.0406 14.9899 68.1957 14.8969ZM76.6111 15.8749L81.455 3.57228L82.7907 4.09819L85.3161 16.7344L89.2847 6.65507L90.5149 7.13946L85.671 19.442L84.3441 18.9196L81.8099 6.27992L77.8413 16.3592L76.6111 15.8749ZM100.478 13.154L101.792 14.1396L97.7159 27.608L96.5899 26.7639L97.4656 23.8795L92.3497 20.0445L89.8267 21.6941L88.7007 20.8501L100.478 13.154ZM93.5282 19.2755L97.8657 22.527L100.161 14.9465L93.5282 19.2755ZM103.081 34.4207C102.541 33.7082 102.173 32.9318 101.979 32.0917C101.79 31.2477 101.763 30.3991 101.898 29.5459C102.042 28.6939 102.343 27.8814 102.8 27.1085C103.261 26.3405 103.867 25.6713 104.62 25.1009C105.373 24.5304 106.181 24.1271 107.045 23.8911C107.913 23.66 108.774 23.592 109.628 23.6872C110.491 23.7836 111.301 24.0389 112.057 24.4531C112.818 24.8636 113.469 25.425 114.009 26.1375C114.656 26.9906 115.053 27.926 115.2 28.944C115.348 29.962 115.271 30.9559 114.972 31.9258L113.76 31.3747C113.975 30.6269 114.012 29.8567 113.869 29.0641C113.735 28.2727 113.431 27.5634 112.955 26.9362C112.518 26.3592 111.991 25.9091 111.375 25.5861C110.768 25.2643 110.118 25.0693 109.427 25.001C108.735 24.9327 108.043 24.9948 107.352 25.1871C106.66 25.3795 106.016 25.702 105.419 26.1546C104.812 26.6148 104.322 27.1518 103.95 27.7656C103.582 28.3845 103.337 29.0362 103.216 29.7206C103.098 30.4099 103.112 31.0905 103.258 31.7622C103.412 32.4351 103.705 33.0551 104.134 33.6221C104.629 34.2744 105.235 34.7668 105.953 35.0994C106.68 35.4332 107.423 35.6007 108.183 35.6019L108.386 36.9174C107.371 36.9439 106.394 36.7486 105.453 36.3316C104.518 35.9107 103.727 35.2737 103.081 34.4207ZM111.412 49.1383L110.768 47.5548L114.638 41.3015L112.964 40.7692L108.712 42.4982L108.214 41.2734L120.462 36.2928L120.96 37.5176L114.871 39.9937L123.034 42.6179L123.685 44.2189L115.928 41.7151L111.412 49.1383ZM118.462 57.8189C118.44 57.6123 118.494 57.4294 118.623 57.2704C118.758 57.1107 118.932 57.0197 119.145 56.9975C119.345 56.9766 119.525 57.0306 119.684 57.1596C119.85 57.288 119.943 57.4555 119.965 57.6621C119.987 57.875 119.93 58.0613 119.795 58.2211C119.667 58.3864 119.502 58.4795 119.302 58.5004C119.089 58.5226 118.9 58.4664 118.734 58.3318C118.575 58.2028 118.484 58.0318 118.462 57.8189ZM113.718 68.5065L126.745 70.7695L125.368 78.6972L124.065 78.4709L125.216 71.8459L121.122 71.1347L120.17 76.6152L118.867 76.3889L119.819 70.9084L114.795 70.0355L113.644 76.6605L112.341 76.4342L113.718 68.5065ZM109.397 84.0016C109.679 83.3554 110.054 82.7736 110.52 82.256C110.984 81.7443 111.502 81.3453 112.074 81.0592C112.646 80.7731 113.231 80.6512 113.831 80.6934L113.76 82.0124C113.347 81.983 112.937 82.0789 112.531 82.3001C112.129 82.5295 111.76 82.839 111.425 83.2285C111.087 83.6238 110.815 84.0579 110.608 84.531C110.366 85.0849 110.233 85.6415 110.208 86.2011C110.184 86.7606 110.271 87.2593 110.472 87.6973C110.678 88.1377 111.006 88.4563 111.456 88.653C111.912 88.8521 112.353 88.8631 112.781 88.6859C113.209 88.5087 113.613 88.2144 113.992 87.8029C114.374 87.3997 114.726 86.9557 115.048 86.4711C115.552 85.7091 116.073 85.0535 116.608 84.5042C117.141 83.9607 117.716 83.5969 118.332 83.4127C118.954 83.2311 119.638 83.303 120.382 83.6282C121.08 83.9333 121.597 84.3999 121.934 85.0282C122.271 85.6564 122.437 86.3611 122.433 87.1424C122.426 87.9294 122.254 88.7065 121.919 89.4738C121.644 90.1027 121.278 90.6743 120.819 91.1885C120.361 91.7028 119.845 92.1059 119.27 92.3978C118.694 92.6955 118.09 92.8268 117.459 92.7917L117.547 91.4592C117.966 91.4911 118.377 91.3923 118.779 91.1629C119.185 90.9417 119.553 90.6351 119.882 90.2431C120.217 89.8536 120.489 89.4195 120.699 88.9406C120.944 88.395 121.076 87.8412 121.095 87.2792C121.117 86.7254 121.025 86.2283 120.819 85.7879C120.619 85.3499 120.297 85.0339 119.852 84.8397C119.333 84.6128 118.873 84.5732 118.472 84.7208C118.074 84.8767 117.702 85.161 117.357 85.5735C117.012 85.9861 116.655 86.4655 116.285 87.0119C115.815 87.727 115.293 88.3545 114.72 88.8944C114.154 89.4369 113.548 89.8079 112.904 90.0075C112.266 90.2097 111.607 90.162 110.926 89.8645C110.234 89.562 109.716 89.0953 109.374 88.4645C109.037 87.8363 108.872 87.1287 108.879 86.3417C108.884 85.5605 109.056 84.7804 109.397 84.0016ZM110.371 107.227L109.335 106.407L112.149 102.853L102.819 95.4664L103.639 94.4297L112.969 101.816L115.777 98.2691L116.814 99.0898L110.371 107.227ZM93.3883 105.101L93.988 106.107C93.7896 106.782 93.5705 107.521 93.3307 108.324C93.0941 109.132 92.871 109.95 92.6613 110.779C92.4495 111.616 92.2788 112.418 92.1492 113.185C92.0229 113.956 91.9653 114.647 91.9766 115.256C91.9856 115.873 92.0949 116.358 92.3045 116.709C92.5592 117.137 92.8968 117.463 93.3173 117.689C93.7356 117.923 94.1833 118.041 94.6606 118.043C95.1357 118.052 95.5868 117.93 96.0141 117.675C96.4413 117.421 96.7689 117.079 96.9968 116.65C97.2226 116.229 97.3346 115.778 97.3327 115.295C97.334 114.818 97.2073 114.365 96.9526 113.938L98.0883 113.261C98.4752 113.91 98.6682 114.59 98.6673 115.302C98.6609 116.017 98.4874 116.685 98.1466 117.306C97.809 117.932 97.3238 118.434 96.6911 118.811C96.0584 119.188 95.3889 119.375 94.6828 119.371C93.9712 119.37 93.3049 119.199 92.6839 118.858C92.0575 118.521 91.5525 118.03 91.1688 117.386C90.9399 117.002 90.7912 116.519 90.7226 115.937C90.6519 115.364 90.6429 114.728 90.6956 114.029C90.7515 113.336 90.8475 112.612 90.9835 111.856C91.1196 111.101 91.281 110.345 91.4677 109.589C91.6577 108.838 91.8503 108.122 92.0455 107.441L86.8539 110.536L86.1768 109.4L93.3883 105.101ZM78.8714 111.924C79.6296 111.69 80.3584 111.651 81.0579 111.804C81.7592 111.964 82.413 112.28 83.0195 112.752C83.6259 113.224 84.1617 113.82 84.627 114.54C85.0881 115.267 85.4575 116.083 85.7353 116.985C86.0131 117.888 86.1659 118.77 86.1938 119.631C86.2156 120.493 86.1075 121.288 85.8697 122.013C85.6336 122.744 85.2696 123.37 84.7776 123.891C84.2874 124.417 83.6632 124.797 82.905 125.03C82.1528 125.262 81.426 125.297 80.7247 125.138C80.0253 124.984 79.3754 124.67 78.7749 124.196C78.1764 123.728 77.6466 123.131 77.1855 122.403C76.7184 121.677 76.3459 120.863 76.0681 119.96C75.7903 119.058 75.6405 118.175 75.6187 117.312C75.5927 116.457 75.6947 115.665 75.9247 114.935C76.1548 114.206 76.5149 113.578 77.005 113.052C77.4971 112.531 78.1192 112.155 78.8714 111.924ZM79.2603 113.187C78.466 113.432 77.876 113.88 77.4905 114.533C77.0989 115.187 76.8909 115.956 76.8664 116.839C76.8438 117.729 76.9778 118.646 77.2686 119.591C77.576 120.59 77.9934 121.443 78.5207 122.15C79.0438 122.865 79.6475 123.371 80.3316 123.668C81.0117 123.972 81.7398 124.005 82.5161 123.766C83.1299 123.577 83.6219 123.271 83.9922 122.848C84.3625 122.424 84.6221 121.919 84.7712 121.333C84.9202 120.747 84.9717 120.112 84.9259 119.428C84.8819 118.75 84.7515 118.059 84.5348 117.355C84.2422 116.404 83.8334 115.568 83.3084 114.847C82.7853 114.132 82.178 113.614 81.4864 113.293C80.7966 112.978 80.0546 112.943 79.2603 113.187ZM71.4149 114.285L71.4799 115.455C70.991 115.961 70.4543 116.514 69.8696 117.114C69.2854 117.721 68.7083 118.342 68.1383 118.979C67.5625 119.623 67.0395 120.254 66.5694 120.873C66.0997 121.498 65.7287 122.083 65.4563 122.628C65.178 123.18 65.0502 123.66 65.0729 124.068C65.1005 124.565 65.2483 125.011 65.5161 125.406C65.7781 125.807 66.1202 126.119 66.5424 126.342C66.9588 126.571 67.4152 126.672 67.9118 126.644C68.4085 126.616 68.8572 126.465 69.2582 126.191C69.6532 125.923 69.9617 125.575 70.1838 125.146C70.4062 124.724 70.5037 124.264 70.4761 123.768L71.7962 123.694C71.8381 124.449 71.6938 125.141 71.363 125.771C71.0261 126.402 70.5626 126.913 69.9728 127.305C69.3833 127.704 68.7208 127.923 67.9852 127.964C67.2497 128.005 66.5701 127.86 65.9463 127.529C65.3163 127.198 64.8051 126.738 64.4129 126.148C64.0144 125.559 63.7943 124.89 63.7528 124.142C63.7279 123.695 63.8201 123.198 64.0293 122.651C64.2325 122.11 64.5194 121.542 64.8899 120.948C65.2608 120.359 65.6816 119.762 66.1524 119.156C66.6231 118.55 67.1166 117.955 67.6327 117.371C68.1492 116.794 68.6518 116.249 69.1404 115.736L63.1054 116.072L63.032 114.751L71.4149 114.285ZM55.5386 113.77C56.3317 113.913 57.019 114.235 57.6004 114.736C58.1756 115.236 58.5942 115.843 58.8561 116.555C59.1168 117.274 59.1774 118.021 59.0379 118.795L57.7367 118.561C57.8338 118.022 57.7899 117.502 57.6049 117.002C57.4188 116.507 57.1267 116.087 56.7286 115.74C56.3243 115.392 55.8495 115.169 55.3042 115.071C54.7651 114.974 54.2485 115.018 53.7544 115.204C53.2602 115.39 52.8397 115.682 52.4929 116.081C52.1388 116.484 51.9132 116.955 51.816 117.494C51.7178 118.039 51.7586 118.558 51.9385 119.051C52.1111 119.55 52.4088 119.974 52.8317 120.326C53.2473 120.682 53.7773 120.918 54.4218 121.034L57.5819 121.604L55.27 127.405L49.1821 126.309L49.4165 125.007L54.4541 125.915L55.7488 122.617L54.2355 122.335C53.3516 122.163 52.608 121.833 52.0047 121.347C51.3952 120.86 50.9589 120.263 50.6959 119.557C50.4256 118.856 50.3652 118.09 50.5148 117.26C50.6197 116.677 50.8301 116.149 51.1458 115.675C51.4553 115.2 51.8441 114.799 52.3121 114.474C52.7728 114.154 53.2804 113.929 53.8349 113.799C54.382 113.673 54.95 113.664 55.5386 113.77ZM39.4662 114.375C39.6521 114.468 39.7775 114.612 39.8425 114.806C39.9046 115.006 39.8878 115.201 39.7923 115.393C39.7023 115.573 39.5602 115.696 39.366 115.761C39.169 115.831 38.9775 115.82 38.7916 115.727C38.6 115.632 38.4732 115.484 38.4111 115.284C38.3405 115.087 38.3502 114.899 38.4402 114.718C38.5358 114.527 38.6849 114.397 38.8876 114.329C39.0818 114.264 39.2747 114.28 39.4662 114.375ZM28.8362 100.127C29.4757 100.752 29.9538 101.465 30.2703 102.268C30.5825 103.074 30.7348 103.909 30.7271 104.773C30.7104 105.637 30.5334 106.485 30.1958 107.317C29.8538 108.145 29.3527 108.897 28.6928 109.572C28.0328 110.248 27.2931 110.766 26.4737 111.128C25.6497 111.484 24.8083 111.679 23.9494 111.711C23.0815 111.744 22.243 111.611 21.4336 111.313C20.6199 111.02 19.8932 110.561 19.2537 109.936C18.488 109.188 17.957 108.322 17.6605 107.337C17.3641 106.352 17.2923 105.358 17.4453 104.354L18.7252 104.72C18.6229 105.491 18.7009 106.259 18.9591 107.021C19.2085 107.784 19.6146 108.441 20.1776 108.991C20.6955 109.497 21.2831 109.864 21.9402 110.092C22.5885 110.32 23.2597 110.417 23.9539 110.382C24.648 110.347 25.3229 110.184 25.9784 109.891C26.6339 109.599 27.2234 109.184 27.747 108.648C28.2794 108.103 28.6842 107.5 28.9614 106.838C29.2341 106.171 29.3797 105.49 29.3983 104.796C29.4124 104.096 29.2977 103.425 29.0542 102.783C28.8018 102.14 28.4212 101.57 27.9122 101.073C27.3267 100.501 26.6543 100.104 25.8948 99.8811C25.1264 99.6585 24.3666 99.6029 23.6154 99.714L23.2199 98.4431C24.2196 98.2666 25.2153 98.3151 26.2069 98.5885C27.1941 98.8663 28.0705 99.3792 28.8362 100.127ZM7.18203 93.4814L6.52638 92.3332L18.0081 85.7768L18.6637 86.925L13.0869 90.1095L16.529 96.1374L22.1059 92.9528L22.7615 94.101L11.2798 100.657L10.6242 99.5093L15.3809 96.793L11.9387 90.7651L7.18203 93.4814ZM9.65125 77.4821C9.70027 77.684 9.67149 77.8724 9.56494 78.0472C9.45226 78.2236 9.29191 78.3371 9.08388 78.3876C8.88809 78.4351 8.70276 78.4056 8.52787 78.299C8.34687 78.1939 8.23185 78.0405 8.18284 77.8385C8.13233 77.6305 8.16342 77.4383 8.2761 77.262C8.38117 77.0809 8.5316 76.9667 8.72739 76.9191C8.93542 76.8686 9.13067 76.899 9.31316 77.0102C9.48805 77.1167 9.60075 77.274 9.65125 77.4821Z" fill="#768B9B"/>
</svg>
