<svg width="32" height="32" viewBox="0 0 32 32" fill="none" xmlns="http://www.w3.org/2000/svg">
<path d="M28 2H4C2.93913 2 1.92172 2.42143 1.17157 3.17157C0.421427 3.92172 0 4.93913 0 6L0 6.8L16 15.8L32 7V6C32 4.93913 31.5786 3.92172 30.8284 3.17157C30.0783 2.42143 29.0609 2 28 2Z" fill="white"/>
<path d="M15 19.7999L0 11.3999V25.9999C0 27.0608 0.421427 28.0782 1.17157 28.8283C1.92172 29.5785 2.93913 29.9999 4 29.9999H28C29.0609 29.9999 30.0783 29.5785 30.8284 28.8283C31.5786 28.0782 32 27.0608 32 25.9999V11.3999L17 19.7999C16.6848 19.9384 16.3443 20.0099 16 20.0099C15.6557 20.0099 15.3152 19.9384 15 19.7999Z" fill="white"/>
</svg>
