<svg width="48" height="48" viewBox="0 0 48 48" fill="none" xmlns="http://www.w3.org/2000/svg">
<path d="M32.6035 19C30.8641 19 29.2488 19.6597 28.2285 21.124C27.9714 21.5193 27.7205 21.9138 27.4023 22.2646L28.3017 2.04492L33.5478 2L32.6035 19Z" fill="#161615"/>
<path fill-rule="evenodd" clip-rule="evenodd" d="M40.2744 40.6145C40.0002 43.7109 37.4064 46.0852 34.2979 46.0852H13.7021C10.6907 46.0852 8.16219 43.857 7.75781 40.9026L6.08496 22.0852L15.0869 22.0891C15.6802 22.1278 16.2244 22.4342 16.5654 22.9211L16.7959 23.2834C20.2394 28.5531 28.0618 28.468 31.3643 23.0286C31.7098 22.4595 32.3242 22.0852 33.041 22.0852H41.916L40.2744 40.6145ZM24 30.0852C21.2386 30.0852 19 32.3238 19 35.0852C19 37.8466 21.2386 40.0852 24 40.0852C26.7614 40.0852 29 37.8466 29 35.0852C29 32.3238 26.7614 30.0852 24 30.0852Z" fill="#161615"/>
<path d="M39.4571 19H34.5479L34.9366 12H40.3321L39.4571 19Z" fill="#161615"/>
<path d="M12.6318 19.002L7.77148 19L6.88281 11H12.1318L12.6318 19.002Z" fill="#161615"/>
<path d="M18.8867 4.0498L19.7734 22.2461C19.3995 21.8296 19.1216 21.3375 18.7881 20.8896C17.7168 19.5308 16.2179 19.062 14.5693 19.0029L13.6318 4L18.8867 4.0498Z" fill="#161615"/>
<path d="M25.705 23.6904C24.372 24.2164 22.871 24.2175 21.539 23.6904L20.7734 8H26.4023L25.705 23.6904Z" fill="#161615"/>
</svg>
