<svg width="32" height="32" viewBox="0 0 32 32" fill="none" xmlns="http://www.w3.org/2000/svg">
<path d="M29 1H3C2.46957 1 1.96086 1.21071 1.58579 1.58579C1.21071 1.96086 1 2.46957 1 3V29C1 29.5304 1.21071 30.0391 1.58579 30.4142C1.96086 30.7893 2.46957 31 3 31H29C29.5304 31 30.0391 30.7893 30.4142 30.4142C30.7893 30.0391 31 29.5304 31 29V3C31 2.46957 30.7893 1.96086 30.4142 1.58579C30.0391 1.21071 29.5304 1 29 1ZM9.887 26.594H5.374V12.25H9.887V26.594ZM7.63 10.281C7.11117 10.2794 6.60444 10.1241 6.17381 9.83472C5.74319 9.54533 5.40798 9.13481 5.21053 8.65501C5.01307 8.17522 4.96223 7.64767 5.06442 7.139C5.16661 6.63033 5.41724 6.16335 5.78467 5.79703C6.1521 5.43072 6.61984 5.18151 7.12882 5.08087C7.6378 4.98023 8.16519 5.03268 8.64438 5.23159C9.12357 5.4305 9.53307 5.76696 9.82116 6.19846C10.1092 6.62997 10.263 7.13717 10.263 7.656C10.2631 8.00143 10.1951 8.34349 10.0627 8.66255C9.93032 8.98161 9.73625 9.2714 9.49162 9.51528C9.24699 9.75917 8.95662 9.95235 8.63716 10.0838C8.31769 10.2152 7.97543 10.2822 7.63 10.281ZM26.621 26.594H22.2V19.656C22.2 17.969 22.2 15.906 19.85 15.906C17.5 15.906 17.217 17.688 17.217 19.562V26.688H12.8V12.25H16.936V14.219H17.03C17.4566 13.4815 18.0756 12.8738 18.8208 12.4609C19.5661 12.0481 20.4095 11.8455 21.261 11.875C25.774 11.875 26.62 14.875 26.62 18.719L26.621 26.594Z" fill="white"/>
</svg>
