<svg width="240" height="240" viewBox="0 0 240 240" fill="none" xmlns="http://www.w3.org/2000/svg">
<g clip-path="url(#clip0_294_810)">
<path d="M20.4364 62.9042C20.7354 61.5176 21.7978 60.4518 23.1789 60.1371L63.5073 50.9078C64.1803 50.7621 64.8758 50.8038 65.5109 51.0069L215.075 103.6C216.004 103.918 216.778 104.616 217.212 105.564C217.842 106.986 217.478 108.673 216.32 109.716L127.989 189.267C127.073 190.079 125.807 190.384 124.645 190.073L64.864 174.486C64.5469 174.412 64.2452 174.293 63.9754 174.137C62.7651 173.438 62.0392 172.07 62.1673 170.64L63.4358 157.754L31.0797 163.41C30.2123 163.552 29.3545 163.395 28.6431 162.984C27.7435 162.465 27.0775 161.579 26.8905 160.468C26.7683 159.754 26.8651 159.057 27.1233 158.421L54.8561 91.4256L21.7973 66.5929C20.672 65.7469 20.1232 64.318 20.4268 62.9233L20.4364 62.9042ZM71.9436 145.263L71.3458 151.417L71.1404 153.359L71.1168 153.4C71.1105 153.505 71.1042 153.61 71.0768 153.714C71.0704 153.82 71.0736 153.909 71.0509 154.005L69.6628 168.25L124.55 182.548L200.244 114.403L203.253 111.703L177.477 114.234L74.0093 124.421L71.9465 145.255L71.9436 145.263ZM64.4461 147.466L66.1156 130.504L41.5185 154.203L64.4508 147.457L64.4461 147.466ZM40.4531 145.171L68.0297 118.634L68.165 118.494C68.2909 118.37 68.4167 118.247 68.553 118.162C69.1322 117.744 69.7892 117.513 70.4661 117.511L178.766 106.831L61.6014 94.0961L40.4531 145.171ZM60.669 86.7003L183.007 100.013L183.048 100.036L64.1178 58.195L32.4222 65.4643L60.69 86.7021L60.669 86.7003Z" fill="black"/>
</g>
<defs>
<clipPath id="clip0_294_810">
<rect width="240" height="240" fill="white"/>
</clipPath>
</defs>
</svg>
