<svg width="48" height="48" viewBox="0 0 48 48" fill="none" xmlns="http://www.w3.org/2000/svg">
<path d="M5 25C5 18.9249 9.92487 14 16 14C19.7692 14 23.095 15.8965 25.0752 18.7812L22.6016 20.4785C21.1575 18.3747 18.7386 17 16 17C11.5817 17 8 20.5817 8 25V26H5V25Z" fill="#161615"/>
<path d="M40 25C40 20.5817 36.4183 17 32 17C27.5817 17 24 20.5817 24 25V26H21V25C21 18.9249 25.9249 14 32 14C38.0751 14 43 18.9249 43 25V26H40V25Z" fill="#161615"/>
<path d="M34 25C34 23.8954 33.1046 23 32 23C30.8954 23 30 23.8954 30 25V26H27V25C27 22.2386 29.2386 20 32 20C34.7614 20 37 22.2386 37 25V26H34V25Z" fill="#161615"/>
<path d="M14 25C14 23.8954 14.8954 23 16 23C16.8103 23 17.508 23.4818 17.8223 24.1746L19.7236 21.663C18.8081 20.6422 17.4791 20 16 20C13.2386 20 11 22.2386 11 25V26H14V25Z" fill="#161615"/>
<path fill-rule="evenodd" clip-rule="evenodd" d="M46 31.2725L39.1045 37.1758L38.1172 39.9873C37.2733 42.391 35.0036 44 32.4561 44H15.5439C12.9964 44 10.7267 42.391 9.88281 39.9873L8.89453 37.1758L2 31.2725V29H46V31.2725ZM11.459 35L12.3643 38H35.6357L36.541 35H11.459Z" fill="#161615"/>
<path d="M36 2V3C36 5.60424 35.6612 7.93152 34.2334 9.58203C32.8668 11.1617 30.7029 11.9046 27.627 11.9912L26 12V11C26 8.39576 26.3388 6.06848 27.7666 4.41797C29.2242 2.73303 31.589 2 35 2H36Z" fill="#161615"/>
<path d="M3.52832 14.6433L5.64964 12.522L7.78478 14.6571L6.72412 15.7178L5.66346 16.7784L3.52832 14.6433Z" fill="#161615"/>
<path d="M37.8789 12L40.0002 9.87866L42.1353 12.0138L40.014 14.1351L37.8789 12Z" fill="#161615"/>
<path d="M19.8789 8.99998L22.0002 6.87866L24.1353 9.01379L22.014 11.1351L19.8789 8.99998Z" fill="#161615"/>
<path d="M10.1424 1.9908C11.5413 1.5914 13.0088 2.35564 13.4832 3.73104L15.989 10.9996C14.2677 11.001 12.6193 11.3138 11.0965 11.8834L8.38848 5.72713C7.74087 4.25528 8.49525 2.55721 9.99394 2.03768L10.1424 1.9908Z" fill="#161615"/>
</svg>
