<svg width="241" height="331" viewBox="0 0 241 331" fill="none" xmlns="http://www.w3.org/2000/svg">
<path d="M30.3509 325.627C19.8345 336.624 1.28469 329.221 1.22207 314.001L0.000150486 17.0044C-0.0491861 5.01256 12.0428 -3.22237 23.1761 1.22107L229.619 83.6158C240.753 88.0592 243.858 102.36 235.572 111.025L30.3509 325.627Z" fill="#FBC02A"/>
<path d="M94.5001 165.499C87.9535 181.871 69.3857 178.533 66.9533 177.889C64.5163 177.245 46.2752 173.059 44.1676 151.829" stroke="black" stroke-width="4" stroke-linecap="round"/>
<path d="M101.085 164.161C99.3829 166.372 96.2118 166.784 94.0017 165.082C91.7915 163.38 91.3794 160.209 93.0811 157.999" stroke="black" stroke-width="4" stroke-linecap="round"/>
<path d="M47.6254 144.998C48.4713 147.656 47.0024 150.497 44.3444 151.343C41.6864 152.188 38.8459 150.719 38 148.062" stroke="black" stroke-width="4" stroke-linecap="round"/>
<circle cx="56" cy="113" r="23" fill="white"/>
<circle cx="56" cy="117" r="14" fill="#111827"/>
<circle cx="127" cy="140" r="23" fill="white"/>
<circle cx="127.001" cy="143" r="14" fill="#111827"/>
</svg>
